<svg width="297" height="25" viewBox="0 0 297 25" fill="none" xmlns="http://www.w3.org/2000/svg">
<path d="M59.3605 8.82285C59.1589 8.47726 58.8597 8.19895 58.5004 8.02289C58.1294 7.85815 57.7279 7.77316 57.3219 7.77344C57.0316 7.78162 56.7431 7.822 56.4618 7.89387C56.1866 7.96124 55.9249 8.07466 55.6876 8.22933C55.4564 8.37951 55.2646 8.58307 55.1285 8.82285C54.9888 9.08778 54.9178 9.38354 54.922 9.68303C54.9159 9.91535 54.9568 10.1465 55.0425 10.3626C55.1253 10.5744 55.2617 10.7611 55.4382 10.9045C55.6617 11.091 55.9108 11.2445 56.1779 11.3604C56.5509 11.52 56.9329 11.6579 57.3219 11.7732C57.7606 11.9109 58.1821 12.0657 58.6036 12.2205C58.9984 12.373 59.3693 12.5816 59.7046 12.8399C60.0238 13.085 60.2827 13.3998 60.4616 13.7602C60.6574 14.2168 60.7541 14.7098 60.7452 15.2066C60.7363 15.7033 60.622 16.1925 60.4099 16.6418C60.201 17.0463 59.9076 17.4012 59.5498 17.6826C59.1652 17.9658 58.7303 18.173 58.2681 18.2934C57.7784 18.4317 57.2717 18.5012 56.7628 18.4998C56.4285 18.4964 56.095 18.4677 55.765 18.4138C55.4054 18.3771 55.0507 18.3022 54.707 18.1901C54.4002 18.0683 54.111 17.9063 53.8468 17.7084C53.5749 17.5051 53.3418 17.2546 53.1587 16.9687L54.3199 16.0225C54.5571 16.4377 54.918 16.7684 55.3521 16.9687C55.7879 17.1848 56.2678 17.2967 56.7542 17.2956C57.0455 17.292 57.3349 17.2486 57.6144 17.1665C57.8995 17.0798 58.1694 16.9492 58.4143 16.7795C58.6487 16.6168 58.8452 16.4055 58.9907 16.1601C59.1424 15.8992 59.2198 15.6017 59.2143 15.3C59.2273 15.0026 59.1652 14.7068 59.0337 14.4398C58.9054 14.2045 58.7188 14.006 58.4918 13.8635C58.2001 13.6784 57.8847 13.5337 57.5542 13.4334L56.2295 12.9775C55.8445 12.8565 55.4681 12.71 55.1027 12.5388C54.7873 12.379 54.4974 12.1731 54.2425 11.9281C53.985 11.6856 53.78 11.3929 53.6404 11.0679C53.4873 10.6794 53.4142 10.2639 53.4253 9.84646C53.4124 9.34881 53.5217 8.85559 53.7436 8.40997C53.9531 8.01066 54.2465 7.66145 54.6038 7.38636C54.9795 7.1075 55.4018 6.89778 55.851 6.76704C56.3187 6.6211 56.8062 6.54856 57.2961 6.552C57.9 6.54613 58.5 6.64808 59.0681 6.85306C59.6156 7.06842 60.1006 7.41735 60.4788 7.86806L59.3605 8.82285Z" fill="#3E4861"/>
<path d="M76.6072 17.2439C77.2175 17.2502 77.8224 17.1296 78.3836 16.8897C78.9448 16.6498 79.45 16.2959 79.8672 15.8504C80.2693 15.4135 80.582 14.9021 80.7876 14.3451C81.0136 13.7549 81.1274 13.1277 81.1231 12.4957C81.1231 11.8641 81.0095 11.2377 80.7876 10.6464C80.5737 10.0915 80.2587 9.58106 79.8586 9.14106C79.4562 8.70962 78.9704 8.36432 78.4307 8.12605C77.8524 7.87658 77.2284 7.7506 76.5986 7.75618C75.9706 7.7501 75.3487 7.87918 74.775 8.13466C74.2344 8.37144 73.7484 8.71694 73.3471 9.14966C72.944 9.58742 72.6287 10.0984 72.4181 10.655C72.1951 11.2457 72.0842 11.8729 72.0913 12.5043C72.0885 13.1354 72.1992 13.7618 72.4181 14.3537C72.632 14.9086 72.947 15.419 73.3471 15.859C73.7512 16.2885 74.2366 16.6335 74.775 16.874C75.3538 17.1218 75.9775 17.2477 76.6072 17.2439ZM76.6072 18.4997C75.7886 18.5066 74.9766 18.3547 74.2159 18.0525C73.5088 17.7621 72.8658 17.3354 72.3235 16.7966C71.7835 16.2588 71.3616 15.6143 71.0849 14.9042C70.7808 14.141 70.6289 13.3258 70.6376 12.5043C70.6294 11.6865 70.7784 10.8747 71.0762 10.1131C71.3518 9.39913 71.7723 8.75004 72.3111 8.20672C72.85 7.66339 73.4956 7.23761 74.2073 6.95622C74.9662 6.64689 75.7791 6.49191 76.5986 6.50033C77.4171 6.49343 78.2292 6.64533 78.9898 6.94762C79.6981 7.23575 80.3416 7.66275 80.8822 8.20347C81.4242 8.74295 81.8463 9.39072 82.1209 10.1044C82.4257 10.8644 82.5777 11.677 82.5682 12.4957C82.5763 13.3136 82.4274 14.1253 82.1295 14.887C81.853 15.6023 81.4312 16.2525 80.8908 16.7966C80.3491 17.3298 79.7094 17.7533 79.007 18.0438C78.2449 18.3523 77.4293 18.5072 76.6072 18.4997Z" fill="#3E4861"/>
<path d="M94.4816 11.8077H96.7782C97.3641 11.8322 97.9425 11.6695 98.4297 11.3432C98.6461 11.1768 98.8176 10.9591 98.9287 10.7098C99.0399 10.4605 99.0871 10.1875 99.0663 9.91534C99.0879 9.64348 99.04 9.37058 98.9272 9.12231C98.8143 8.87404 98.6402 8.65853 98.4212 8.49605C97.9352 8.16699 97.3558 8.00404 96.7696 8.03156H94.4816V11.8077ZM93.1225 6.77571H96.5116C97.0174 6.77345 97.5221 6.82536 98.0169 6.93054C98.469 7.0195 98.9006 7.19158 99.2899 7.43804C99.6514 7.6873 99.9466 8.02094 100.15 8.41004C100.38 8.87147 100.493 9.38272 100.477 9.89813C100.501 10.4366 100.379 10.9715 100.124 11.4464C99.9046 11.8402 99.5915 12.174 99.2125 12.4184C98.8405 12.6544 98.43 12.8232 97.9997 12.9173C97.5873 13.01 97.1664 13.059 96.7438 13.0636H94.4472V18.2246H93.0967L93.1225 6.77571Z" fill="#3E4861"/>
<path d="M112.399 11.7903H114.687C115.273 11.8178 115.853 11.6549 116.339 11.3258C116.539 11.1467 116.699 10.9273 116.809 10.682C116.919 10.4367 116.976 10.171 116.976 9.90225C116.976 9.63351 116.919 9.36779 116.809 9.12248C116.699 8.87717 116.539 8.65778 116.339 8.47866C115.851 8.15239 115.273 7.9897 114.687 8.01417H112.399V11.7903ZM111.04 6.76692H114.421C114.929 6.76464 115.437 6.81654 115.934 6.92175C116.387 7.01524 116.818 7.19012 117.207 7.43785C117.569 7.68338 117.864 8.01428 118.068 8.40124C118.304 8.86078 118.419 9.37288 118.403 9.88934C118.423 10.4274 118.301 10.9613 118.05 11.4377C117.828 11.8296 117.516 12.1629 117.139 12.4097C116.766 12.6493 116.351 12.8185 115.917 12.9086C115.506 13.0057 115.084 13.0547 114.661 13.0548H112.399V18.2158H111.049L111.04 6.76692Z" fill="#3E4861"/>
<path d="M5.60833 8.59918L7.87058 14.2075H3.24285L5.60833 8.59918ZM5.02341 6.87883L0 18.2761H1.53111L2.70954 15.4634H8.42109L9.58233 18.2675H11.165L6.29647 6.85303L5.02341 6.87883Z" fill="#3E4861"/>
<path d="M21.0483 6.84448H22.3988L22.4074 17.0031L27.6373 16.9945V18.2504L21.0569 18.259L21.0483 6.84448Z" fill="#3E4861"/>
<path d="M37.4951 6.82715H38.8456L38.8542 16.9858H44.084V18.2416H37.5037L37.4951 6.82715Z" fill="#3E4861"/>
<path d="M159.81 23.3254C158.651 23.3254 157.514 22.7618 156.4 21.6346L154.051 19.2959C155.1 17.7951 155.841 15.4823 156.273 12.3574C156.347 11.5702 156.528 10.7966 156.809 10.0576C156.914 9.8833 157.073 9.74805 157.263 9.67242C157.452 9.5968 157.66 9.58492 157.857 9.63861V9.33651H152.984V9.61424L153.471 9.58014L153.691 9.61424C154.194 9.59419 154.695 9.69441 155.152 9.90659C155.45 10.0771 155.596 10.4864 155.596 11.1345C155.557 12.384 155.41 13.6279 155.157 14.8522C154.944 16.2767 154.407 17.6334 153.588 18.8184L143.444 8.78105C141.397 6.76384 140.376 5.12507 140.379 3.86472C140.375 3.49009 140.45 3.11888 140.599 2.77503C140.748 2.43118 140.967 2.12234 141.243 1.86844C141.518 1.61453 141.844 1.42121 142.199 1.30095C142.553 1.18069 142.929 1.13616 143.303 1.17024C144.463 1.20365 145.595 1.53956 146.587 2.14473C147.721 2.80014 148.724 3.66098 149.544 4.6833H149.856L148.882 2.05703C148.13 1.61806 147.341 1.24787 146.523 0.950976C146.279 0.866384 146.03 0.796421 145.778 0.741459C144.175 0.317554 141.48 0.307809 140.028 1.91573C139.25 2.74643 138.816 3.842 138.815 4.98052C138.811 5.67079 138.95 6.35438 139.224 6.98798C139.564 7.72438 139.972 8.42744 140.442 9.08802C138.714 9.36518 137.14 10.2456 135.999 11.573C135.418 12.2592 134.981 13.0543 134.712 13.9118C134.483 14.7359 134.381 15.5904 134.41 16.4455C134.434 17.7625 134.833 19.0455 135.56 20.1437C135.901 20.7215 136.312 21.255 136.783 21.7321C137.949 22.8448 139.372 23.6531 140.925 24.0855C141.874 24.3634 142.859 24.5029 143.848 24.4997C144.996 24.5074 146.141 24.3782 147.259 24.1147C149.232 23.6467 151.033 22.6337 152.458 21.1913L153.218 21.927C154.368 23.0477 156.327 24.7482 159.294 24.1537C160.371 23.9565 161.394 23.533 162.295 22.9112V22.5604C161.55 23.0312 160.692 23.2952 159.81 23.3254ZM140.881 9.57526C141.29 10.1005 141.728 10.6031 142.192 11.0809C142.869 11.7922 143.234 12.1772 143.298 12.2308L152 20.6991L151.786 20.8843C151.019 21.5371 150.17 22.0874 149.262 22.5214C148.254 22.8946 147.182 23.0603 146.109 23.0087C143.549 23.0114 141.087 22.0231 139.239 20.2509C137.218 18.4091 136.207 16.4097 136.203 14.2528C136.207 11.8686 137.766 10.3094 140.881 9.57526Z" fill="#E8E8E8"/>
<path d="M237.603 8.83001C237.407 8.48094 237.106 8.20162 236.744 8.03065C236.373 7.86675 235.972 7.78186 235.566 7.78138C235.276 7.78222 234.987 7.81976 234.707 7.89312C234.431 7.96341 234.17 8.07965 233.933 8.23693C233.697 8.38116 233.504 8.58595 233.374 8.83001C233.234 9.09461 233.163 9.39024 233.168 9.68954C233.161 9.92457 233.202 10.1586 233.288 10.3772C233.374 10.5875 233.509 10.7736 233.684 10.9187C233.906 11.105 234.155 11.2557 234.423 11.3656C234.795 11.5284 235.177 11.6691 235.566 11.7868C236.005 11.9243 236.426 12.0704 236.847 12.2338C237.239 12.3866 237.61 12.5919 237.947 12.844C238.264 13.0941 238.523 13.4111 238.703 13.7723C238.907 14.2076 239.004 14.6847 238.987 15.1648C238.965 15.6807 238.814 16.1828 238.549 16.626C238.338 17.0287 238.045 17.3829 237.689 17.666C237.303 17.9455 236.869 18.1523 236.409 18.2763C235.919 18.4145 235.413 18.484 234.904 18.4825C234.57 18.4792 234.237 18.4504 233.907 18.3966C233.581 18.3363 233.261 18.2442 232.953 18.1215C232.649 17.9946 232.361 17.8331 232.094 17.6402C231.823 17.4328 231.588 17.1832 231.397 16.901L232.566 15.9469C232.803 16.3643 233.163 16.6977 233.598 16.901C234.307 17.2457 235.119 17.3132 235.876 17.0901C236.162 17.0101 236.432 16.8822 236.675 16.7119C236.907 16.547 237.103 16.3364 237.251 16.0931C237.403 15.8323 237.48 15.5351 237.474 15.2335C237.486 14.9365 237.424 14.6414 237.294 14.374C237.163 14.1431 236.977 13.9482 236.752 13.8067C236.46 13.6221 236.145 13.4748 235.815 13.3683L234.492 12.9214C234.107 12.8005 233.731 12.6541 233.366 12.483C233.049 12.3232 232.758 12.1144 232.506 11.8642C232.247 11.6234 232.042 11.3304 231.905 11.0046C231.746 10.5785 231.673 10.125 231.691 9.67061C231.709 9.21619 231.816 8.76979 232.008 8.35727C232.212 7.95504 232.506 7.6051 232.867 7.33442C233.244 7.05631 233.666 6.84415 234.114 6.70697C234.582 6.56753 235.069 6.49802 235.558 6.50068C236.161 6.4906 236.762 6.5926 237.328 6.80152C237.883 7.01907 238.374 7.37396 238.755 7.83295L237.603 8.83001Z" fill="#3E4861"/>
<path d="M254.794 17.2363C255.404 17.2468 256.009 17.1291 256.57 16.8907C257.131 16.6523 257.636 16.2986 258.052 15.8524C258.454 15.4128 258.766 14.8989 258.971 14.3396C259.199 13.7537 259.31 13.1288 259.298 12.5003C259.305 11.8693 259.194 11.2426 258.971 10.6523C258.757 10.0978 258.443 9.58775 258.043 9.14808C257.641 8.71696 257.155 8.37192 256.616 8.13383C256.037 7.887 255.415 7.75976 254.785 7.75976C254.156 7.75976 253.533 7.887 252.954 8.13383C252.416 8.36906 251.933 8.71458 251.536 9.14808C251.132 9.58419 250.816 10.0952 250.608 10.6523C250.384 11.2424 250.273 11.8692 250.281 12.5003C250.278 13.1281 250.389 13.7512 250.608 14.3396C250.82 14.8977 251.135 15.4109 251.536 15.8524C251.951 16.2996 252.455 16.6535 253.017 16.8906C253.579 17.1277 254.184 17.2426 254.794 17.2277V17.2363ZM254.794 18.4912C253.975 18.4996 253.163 18.3447 252.404 18.0356C251.692 17.7553 251.043 17.3343 250.496 16.7979C249.967 16.2575 249.554 15.6138 249.284 14.9069C248.98 14.1476 248.828 13.3356 248.837 12.5174C248.829 11.7002 248.978 10.8891 249.276 10.1279C249.552 9.41492 249.967 8.76355 250.496 8.21119C251.037 7.6736 251.68 7.24982 252.387 6.96487C253.923 6.36295 255.63 6.36295 257.166 6.96487C257.883 7.24652 258.538 7.66716 259.092 8.20259C259.629 8.74469 260.051 9.39114 260.329 10.1022C260.633 10.8648 260.785 11.6794 260.776 12.5003C260.784 13.3175 260.636 14.1286 260.338 14.8897C260.061 15.6037 259.636 16.251 259.092 16.7893C258.553 17.3274 257.913 17.7539 257.209 18.0442C256.448 18.3525 255.633 18.5073 254.811 18.4998" fill="#3E4861"/>
<path d="M272.664 11.8127H274.959C275.544 11.833 276.12 11.6708 276.609 11.3485C276.811 11.1695 276.972 10.9498 277.082 10.7039C277.193 10.4579 277.25 10.1913 277.25 9.92172C277.25 9.65209 277.193 9.38552 277.082 9.13959C276.972 8.89365 276.811 8.67393 276.609 8.4949C276.121 8.17299 275.543 8.01356 274.959 8.03934H272.672L272.664 11.8127ZM271.306 6.78443H274.692C275.197 6.78392 275.701 6.83287 276.196 6.93055C276.649 7.02248 277.08 7.19733 277.468 7.44627C277.832 7.6932 278.127 8.02711 278.328 8.41754C278.558 8.87863 278.67 9.3895 278.655 9.90453C278.679 10.4426 278.557 10.9771 278.302 11.4517C278.08 11.8434 277.768 12.1763 277.391 12.423C277.018 12.6552 276.608 12.8237 276.179 12.9215C275.767 13.0141 275.346 13.0631 274.924 13.0676H272.629V18.2248H271.28L271.306 6.78443Z" fill="#3E4861"/>
<path d="M290.602 11.7954H292.888C293.474 11.8229 294.053 11.6601 294.538 11.3312C294.739 11.1515 294.899 10.9315 295.009 10.6857C295.118 10.4398 295.175 10.1736 295.175 9.90443C295.175 9.63521 295.118 9.36901 295.009 9.12318C294.899 8.87734 294.739 8.65737 294.538 8.47761C294.049 8.15784 293.472 7.9986 292.888 8.02205H290.593L290.602 11.7954ZM289.244 6.76714H292.613C293.121 6.76531 293.628 6.81717 294.126 6.92185C294.578 7.00859 295.01 7.18069 295.398 7.42898C295.758 7.67959 296.052 8.0126 296.257 8.40025C296.495 8.85905 296.61 9.37105 296.593 9.88724C296.612 10.4249 296.491 10.9584 296.24 11.4344C296.018 11.8261 295.706 12.1591 295.329 12.4057C294.954 12.6415 294.541 12.8102 294.109 12.9042C293.696 12.9968 293.276 13.0458 292.854 13.0503H290.567V18.2075H289.218L289.244 6.76714Z" fill="#3E4861"/>
<path d="M183.882 8.59773L181.519 14.2105H186.169L183.882 8.59773ZM183.272 6.87866H184.544L189.401 18.2846H187.828L186.667 15.474H180.96L179.782 18.276H178.295L183.272 6.87866Z" fill="#3E4861"/>
<path d="M199.285 6.85283L200.635 6.84424L200.643 16.9953H205.869V18.2502L199.294 18.2588L199.285 6.85283Z" fill="#3E4861"/>
<path d="M215.719 6.83569H217.069L217.077 16.9868L222.303 16.9782V18.2331L215.728 18.2417L215.719 6.83569Z" fill="#3E4861"/>
</svg>
