<svg width="354" height="135" viewBox="0 0 354 135" fill="none" xmlns="http://www.w3.org/2000/svg">
<g clip-path="url(#clip0_21_1358)">
<path d="M0 64.2571V103.984H26.3111V98.8793H5.83642V86.9535H21.8512V81.8492H5.83642V69.3615H26.3111V64.2571H0Z" fill="white"/>
<path d="M41.1853 64.2571V103.984H62.3443V98.8793H47.0768V64.2571H41.1853Z" fill="white"/>
<path d="M77.2185 64.2571V103.984H98.3854V98.8793H83.11V64.2571H77.2185Z" fill="white"/>
<path d="M119.143 64.2571H113.26V103.984H119.143V64.2571Z" fill="white"/>
<path d="M203.409 63.6952C188.134 63.6952 183.619 75.777 183.619 84.0657C183.619 92.3545 188.134 104.507 203.409 104.507C209.812 104.507 214.335 102.345 217.757 98.9339V84.6979H203.465V89.8023H211.865V96.6705C209.387 98.3876 206.43 99.2851 203.409 99.2227C191.335 99.2227 189.558 87.8745 189.558 84.0657C189.558 80.257 191.335 68.8541 203.409 68.8541C207.24 68.8854 210.906 70.3917 213.635 73.0609L217.3 69.3146C213.863 65.5605 210.143 63.6952 203.402 63.6952" fill="white"/>
<path d="M228.918 64.2571V69.3615H240.528V103.984H246.427V69.3615H258.148V64.2571H228.918Z" fill="white"/>
<path d="M286.81 63.6952C271.535 63.6952 267.02 75.777 267.02 84.0657C267.02 92.3545 271.535 104.507 286.81 104.507C302.086 104.507 306.601 92.5808 306.601 84.0657C306.601 75.5507 302.078 63.6952 286.81 63.6952ZM286.81 99.332C274.736 99.332 272.959 87.8745 272.959 84.0657C272.959 80.257 274.736 68.8541 286.81 68.8541C298.884 68.8541 300.591 80.2726 300.591 84.0657C300.591 87.8589 298.9 99.332 286.81 99.332Z" fill="white"/>
<path d="M168.1 104.296L168.745 103.991V64.2571H162.822V90.6608L133.365 61.4318V68.4561C133.294 69.3537 133.648 70.2434 134.324 70.8444L136.283 72.7878V104.007H142.182V78.5946L168.1 104.296Z" fill="white"/>
<path d="M91.0701 27.8554L119.143 0V4.83899C119.214 5.61167 118.891 6.36093 118.294 6.85263L108.273 16.796L118.294 26.7393C118.891 27.231 119.214 27.9803 119.143 28.753V33.592L116.39 30.8603L108.273 38.9148L118.294 48.8582C118.891 49.3499 119.206 50.0991 119.143 50.864V55.7108L91.0701 27.8554ZM97.1267 27.8554L105.244 35.91L113.362 27.8554L105.244 19.8008L97.1267 27.8554Z" fill="white"/>
<path d="M353.261 104.296L353.906 103.991V64.2571H348.006V90.6608L322.049 64.9049L321.475 65.1781V103.999H327.374V78.5946L353.261 104.296Z" fill="white"/>
<path d="M143.551 121.623C143.095 121.334 142.591 121.139 142.064 121.029C141.569 120.92 141.065 120.865 140.554 120.865H136.424V134.61H138.257V128.366H140.837C141.372 128.366 141.899 128.296 142.41 128.147C142.906 128.015 143.378 127.788 143.787 127.476C144.196 127.164 144.518 126.766 144.746 126.305C144.998 125.783 145.124 125.205 145.108 124.627C145.132 123.98 144.974 123.347 144.668 122.778C144.392 122.302 144.007 121.896 143.535 121.607M143.283 124.627C143.299 124.963 143.22 125.291 143.071 125.587C142.945 125.829 142.756 126.048 142.528 126.204C142.292 126.368 142.025 126.485 141.742 126.547C141.427 126.625 141.097 126.664 140.774 126.664H138.257V122.551H140.703C141.034 122.551 141.364 122.59 141.679 122.676C141.978 122.746 142.261 122.871 142.512 123.043C142.748 123.215 142.945 123.441 143.087 123.691C143.236 123.98 143.307 124.3 143.299 124.627" fill="white"/>
<path d="M165.968 128.03C166.401 127.898 166.802 127.695 167.156 127.414C167.533 127.125 167.84 126.75 168.06 126.329C168.32 125.798 168.446 125.213 168.422 124.62C168.438 124.081 168.328 123.55 168.116 123.059C167.927 122.653 167.659 122.278 167.329 121.974C167.014 121.693 166.652 121.474 166.259 121.318C165.897 121.185 165.52 121.076 165.134 121.006C164.796 120.944 164.458 120.904 164.12 120.889H159.676V134.61H161.508V128.366H163.349L167.093 134.61H169.114L165.182 128.194C165.449 128.147 165.709 128.077 165.968 127.999M166.487 125.252C166.417 125.494 166.283 125.72 166.102 125.9C165.858 126.134 165.567 126.313 165.252 126.43C164.78 126.594 164.277 126.664 163.774 126.649H161.414V122.536H163.774C164.277 122.52 164.78 122.59 165.252 122.754C165.567 122.871 165.858 123.051 166.102 123.285C166.283 123.464 166.417 123.691 166.487 123.933C166.637 124.362 166.637 124.823 166.487 125.252Z" fill="white"/>
<path d="M194.678 122.583C194.033 121.935 193.262 121.42 192.413 121.076C190.549 120.35 188.472 120.35 186.608 121.076C185.758 121.42 184.988 121.935 184.343 122.583C183.705 123.246 183.21 124.019 182.872 124.869C182.172 126.735 182.172 128.78 182.872 130.645C183.202 131.496 183.705 132.276 184.343 132.94C184.988 133.595 185.758 134.102 186.608 134.446C188.48 135.156 190.541 135.156 192.413 134.446C193.262 134.102 194.033 133.595 194.678 132.94C195.323 132.284 195.819 131.503 196.149 130.645C196.511 129.724 196.692 128.741 196.676 127.757C196.684 126.774 196.503 125.79 196.149 124.869C195.819 124.019 195.315 123.238 194.678 122.583ZM189.51 122.231C190.273 122.216 191.029 122.364 191.729 122.653C192.366 122.918 192.932 123.316 193.404 123.816C193.876 124.323 194.238 124.916 194.474 125.564C194.977 126.984 194.977 128.522 194.474 129.942C194.238 130.59 193.876 131.183 193.404 131.691C192.932 132.19 192.366 132.588 191.729 132.854C190.305 133.416 188.708 133.416 187.284 132.854C186.647 132.588 186.081 132.19 185.609 131.691C185.137 131.183 184.783 130.59 184.547 129.942C184.044 128.522 184.044 126.984 184.547 125.564C184.783 124.916 185.137 124.323 185.609 123.816C186.081 123.316 186.647 122.918 187.284 122.653C187.992 122.364 188.747 122.224 189.51 122.231Z" fill="white"/>
<path d="M218.433 121.623C217.977 121.334 217.466 121.139 216.939 121.029C216.443 120.92 215.94 120.865 215.428 120.865H211.299V134.61H213.163V128.366H215.743C216.278 128.366 216.805 128.296 217.316 128.147C217.812 128.015 218.284 127.788 218.693 127.476C219.102 127.164 219.432 126.766 219.66 126.305C219.904 125.783 220.03 125.205 220.014 124.627C220.038 123.98 219.88 123.347 219.574 122.778C219.306 122.302 218.913 121.896 218.449 121.607M218.189 124.627C218.197 124.955 218.126 125.291 217.985 125.587C217.851 125.837 217.662 126.048 217.434 126.204C217.198 126.368 216.931 126.485 216.648 126.547C216.333 126.625 216.003 126.664 215.68 126.664H213.163V122.551H215.609C215.94 122.551 216.27 122.59 216.592 122.676C216.891 122.746 217.167 122.871 217.418 123.043C217.654 123.215 217.851 123.441 217.993 123.691C218.142 123.98 218.213 124.3 218.205 124.627" fill="white"/>
<path d="M236.343 128.382H242.801V126.68H236.343V122.567H243.234V120.865H234.511V134.641H243.533V132.94H236.343V128.382Z" fill="white"/>
<path d="M264.432 128.03C264.865 127.898 265.274 127.687 265.628 127.414C266.005 127.125 266.312 126.75 266.532 126.329C266.792 125.798 266.918 125.213 266.894 124.62C266.902 124.081 266.8 123.55 266.587 123.059C266.399 122.653 266.131 122.286 265.801 121.982C265.486 121.701 265.117 121.482 264.723 121.326C264.039 121.076 263.323 120.936 262.592 120.904H258.077V134.61H259.902V128.366H261.75L265.486 134.61H267.586L263.654 128.202C263.921 128.147 264.181 128.077 264.44 127.999M264.967 125.252C264.888 125.494 264.755 125.72 264.574 125.9C264.33 126.134 264.047 126.313 263.732 126.43C263.26 126.586 262.757 126.664 262.253 126.649H259.894V122.536H262.253C262.757 122.52 263.26 122.598 263.732 122.754C264.047 122.871 264.33 123.051 264.574 123.285C264.755 123.464 264.888 123.683 264.967 123.925C265.03 124.143 265.069 124.362 265.077 124.588C265.077 124.815 265.038 125.033 264.967 125.252Z" fill="white"/>
<path d="M280.054 122.567H284.6V134.641H286.425V122.567H290.971V120.865H280.054V122.567Z" fill="white"/>
<path d="M306.687 120.865H304.862V134.641H306.687V120.865Z" fill="white"/>
<path d="M324.008 128.382H330.466V126.68H324.008V122.567H330.898V120.865H322.175V134.641H331.197V132.94H324.008V128.382Z" fill="white"/>
<path d="M353.394 128.881C353.04 128.389 352.569 127.983 352.026 127.702C351.483 127.422 350.909 127.203 350.319 127.055C349.768 126.914 349.226 126.735 348.699 126.524C348.258 126.352 347.857 126.087 347.534 125.743C347.228 125.377 347.07 124.901 347.102 124.424C347.094 124.089 347.165 123.761 347.314 123.457C347.448 123.191 347.645 122.957 347.881 122.778C348.14 122.59 348.431 122.45 348.738 122.364C349.532 122.122 350.39 122.169 351.153 122.504C351.554 122.723 351.892 123.027 352.152 123.402L352.325 123.636L353.898 122.528L353.717 122.294C353.276 121.685 352.679 121.209 351.986 120.92C350.767 120.444 349.414 120.389 348.156 120.764C347.629 120.92 347.141 121.17 346.701 121.498C346.276 121.833 345.93 122.255 345.678 122.731C345.419 123.269 345.293 123.863 345.308 124.463C345.293 125.041 345.403 125.619 345.631 126.149C345.828 126.586 346.111 126.984 346.48 127.297C346.834 127.601 347.228 127.851 347.66 128.03C348.069 128.202 348.502 128.366 348.942 128.506C349.383 128.647 349.792 128.772 350.193 128.912C350.555 129.037 350.909 129.193 351.239 129.381C351.515 129.537 351.751 129.755 351.924 130.021C352.097 130.317 352.183 130.661 352.167 131.004C352.167 131.324 352.104 131.644 351.963 131.941C351.829 132.214 351.633 132.463 351.397 132.659C351.145 132.869 350.854 133.025 350.539 133.127C350.193 133.244 349.831 133.306 349.469 133.299C348.903 133.306 348.337 133.181 347.833 132.924C347.354 132.659 346.952 132.268 346.685 131.792L346.528 131.519L344.829 132.643L345.01 132.885C345.513 133.611 346.213 134.173 347.031 134.524C347.833 134.844 348.699 135.008 349.564 135C350.122 135 350.681 134.914 351.216 134.742C351.735 134.579 352.222 134.313 352.639 133.962C353.056 133.611 353.387 133.181 353.623 132.698C353.874 132.159 354 131.581 353.992 130.988C354.032 130.247 353.835 129.513 353.426 128.889" fill="white"/>
</g>
<defs>
<clipPath id="clip0_21_1358">
<rect width="354" height="135" fill="white"/>
</clipPath>
</defs>
</svg>
