<svg width="16" height="12" viewBox="0 0 16 12" fill="none" xmlns="http://www.w3.org/2000/svg">
<path d="M10.3333 10.9401H0.333252V4.9401H0.666585C0.843396 4.9401 1.01297 4.86987 1.13799 4.74484C1.26301 4.61982 1.33325 4.45025 1.33325 4.27344H3.66659C3.66659 4.45025 3.73682 4.61982 3.86185 4.74484C3.98687 4.86987 4.15644 4.9401 4.33325 4.9401H10.3333V10.9401Z" stroke="#3E4861" stroke-linecap="round" stroke-linejoin="round"/>
<path d="M1.6665 6.27344H3.33317" stroke="#3E4861" stroke-linecap="round" stroke-linejoin="round"/>
<path d="M6.83317 9.60677C7.75365 9.60677 8.49984 8.86058 8.49984 7.9401C8.49984 7.01963 7.75365 6.27344 6.83317 6.27344C5.9127 6.27344 5.1665 7.01963 5.1665 7.9401C5.1665 8.86058 5.9127 9.60677 6.83317 9.60677Z" stroke="#3E4861" stroke-linecap="round" stroke-linejoin="round"/>
<path d="M11.6665 10.2601L13.2531 10.8467L15.6665 4.27339L6.90648 1.06006L5.97314 3.60672" stroke="#3E4861" stroke-linecap="round" stroke-linejoin="round"/>
</svg>
