<svg xmlns="http://www.w3.org/2000/svg" width="395" height="251" viewBox="0 0 395 251"><g fill="none" fill-rule="evenodd"><path fill="#FDD9BA" d="M38.527 40.98L38 46.055l.373 6.505.202.58-.025.06 3.097.562.565.238 2.96-3.93.828-4.807-1.516-.21-.546 3.047-.23-1.28 1.415-6.574L43.683 39l-3.035.233-1.168.54"/><path fill="#2B3C64" d="M37.596 53l5.947.02 1.984.01 2.75 24.468 14.98-2.693.987-.057 6.272-5.15L94 136l-33.365-.084 3.077-11.78.312-36.835-23.777-1.32L37 82.16"/><path fill="#61BFCB" d="M39 44h24v-2H39"/><path fill="#28ADBE" d="M39 44h14v-2H39"/><path fill="#61BFCB" d="M27 45h24v-4H27"/><path fill="#28ADBE" d="M27 45h8v-4h-8"/><path fill="#61BFCB" d="M0 46h32v-6H0"/><path fill="#28ADBE" d="M0 46h4v-6H0"/><path fill="#61BFCB" d="M0 47h3v-7H0"/><path fill="#FDD9BA" d="M45.23 43.325l.77 3.268L45.5 50l-2.5-.51.474-4.384L43.64 43"/><path fill="#4E7182" d="M130.223 144.51l6.524-2.227c.767-.262 1.598.16 1.853.945l1.28 3.918c.257.782-.157 1.632-.924 1.89l-6.524 2.228c-.767.26-1.598-.163-1.854-.946l-1.28-3.917c-.256-.782.158-1.63.925-1.89m-3.027 2.757l1.014 3.107c.658 2.013 2.79 3.1 4.762 2.426l6.456-2.2c1.97-.675 3.035-2.852 2.377-4.865l-1.014-3.105c-.657-2.015-2.79-3.105-4.76-2.43l-6.457 2.202c-1.973.672-3.037 2.852-2.377 4.865"/><path fill="#4E7182" d="M125.292 182.815l37.25-12.365c1.883-.625 2.902-2.648 2.27-4.523l-7.554-22.482c-.628-1.874-2.666-2.885-4.55-2.26l-37.25 12.365c-1.883.625-2.902 2.648-2.27 4.523l7.552 22.482c.63 1.874 2.668 2.885 4.552 2.26"/><path fill="#FDD9BA" d="M136.732 142.657l.268-.978-.94-3.675-1.814-5.975.016-.07-5.48-.96-1.31 6.236-2.14 3.585L125 145l1.638-.264.925-2.04 1.328-1.137 2.22 2.026-1.242.402 1.243.902 2.464-.397 1.877-1.008"/><path fill="#404042" d="M121 247.85l-.825-5.85-6.957.853-.917 1.21-12.874 1.455L97 248h15.57l2.43-1.21.488 1.21"/><path fill="#2B3C64" d="M79.183 130.84L76 136.63l22.198 52.075 4.458 6.993 9.227 38.94L110.83 243l10.17-1.195-1.326-38.74-4.49-12.06-9.066-40.355 2.77-13.182L86.145 129"/><path fill="#404042" d="M62.248 245.188L61 246.636 63.38 248l12.42-.334 1.86-1.25.166 1.212 4.625-.058-.022-2.65L83 241l-6.066.478-.607 1.67"/><path fill="#2B3C64" d="M76.1 243l9.018-1.025 4.8-28.872L90 187.97l-2.02-8.85 1.742-46.29L79.21 128 67 132.378l6.97 47.77 1.886 2.542"/><path fill="#E5E6E7" d="M70.568 66L65 78.92l.16 11.815L65 103.52l1.696 28.342L86 132l-5.39-8.613-1.887-57.228"/><path fill="#FDD9BA" d="M69.4 44.874l-2.862-1.358.413 1.962 2.45-.604zm-7.05 14.03L64 50.737l-3-1.7 4.76-5.07-.274-1.175 1.557-5.685.006-.108 7.76.454 2.84-.2-2.455 4.533-.382 5.49 1.282.527 1.6-3.618 2.48-1.438 1.562 1-.65 4.458L87 54.026l-.227 8.094.04.07L76.49 70l-7.32-8.16-5.097-.984-1.724-1.953z"/><path fill="#5D0006" d="M65 33.408l.383 3.402.81.046 7.802.457 2.857-.2-2.468 4.563L74 47.204l1.288.53 1.61-3.643 2.492-1.446 1.57 1.008-.652 4.488L86.253 54 88 41.18l-2.134-5.434-3.682-2.596L68.134 31"/><path fill="#C1865B" d="M66 43l.433 2L69 44.384"/><path fill="#D0D2D3" d="M64 60.026l5.237.974 7.177-3.986L77 54l-1.37 2.68M80.445 48l-1.42 2.776-1.828.57L76 50.26 77.51 52l2.027-.57L81 48.536"/><path fill="#FEFEFE" d="M73.05 68.774L74.684 71 88 63.428 87.606 60l-1.092.475L71 66.483"/><path fill="#2B3C64" d="M72.803 104.174L76.08 123.2l6.226 16.754 10.456.046 9.008-.87 10.895-2.063-8.165-24.185-5.13-10.16 1.19-7.58 12.303 15.805 13.76 26.122 2.607-.142 5.238-1.47 2.532-.87-16.464-37.02-11.093-24.472-4.86-3.276-15.305-4.65-.995-3.17-11.664 5.426-3.817 10.263L72 91.7"/><path fill="#FEFEFE" d="M71 67l-2 5 1.44-.61"/><path fill="#61BFCB" d="M71.035 66l-.29 2.056.584 1.075L68.9 80.35 65 120.876 67.538 129l3.607-6.423.482-42.115.442-11.522.93-.805"/><path fill="#1D2F58" d="M109 138.62l-6.955 1.31-9.032.872-10.483-.048-6.24-16.74L73 105l3.61 29.1 5.708 10.9 25.93-2.79M81 147l7.49 32 .51-13.4M100.593 95.048L95 87v15.24L107 120l-2.41-7.08-5.206-10.236"/><g fill="#D0D2D3"><path d="M285.918 248.502c0-1.012-31.403-1.834-70.14-1.834s-70.138.822-70.138 1.834c0 1.014 31.4 1.834 70.137 1.834 38.738 0 70.14-.82 70.14-1.834"/><path d="M347.58 248.502c0-1.012-31.402-1.834-70.14-1.834-38.736 0-70.14.822-70.14 1.834 0 1.014 31.404 1.834 70.14 1.834 38.738 0 70.14-.82 70.14-1.834m-186.83 0c0-1.012-31.402-1.834-70.14-1.834-38.737 0-70.14.822-70.14 1.834 0 1.014 31.403 1.834 70.14 1.834 38.738 0 70.14-.82 70.14-1.834"/></g><path fill="#FDD9BA" d="M355.145 107.56l-2.423 3.255-3.017 5.825-3.653 3.253-.052.038 2.285 2.07 3.875-2.15 4.468-1.89 3.146-3.74-1.154-.958-2.012 2.36.465-1.226 3.927-4.1-.56-1.82-2.638-1.348-1.248-.128"/><path fill="#2B3C64" d="M354 119.787l-4.327-4.11-1.443-1.37-18.83 15.853-9.006-12.344-.68-.727-1.002-8.09L256 140.915 280.247 164l5.877-10.686 25.114-26.958 18.15 15.534 4.983-.52"/><path fill="#2B3C64" d="M280.126 165l5.897-10.754 25.2-27.13L316 121l-41.91 7.154-3.09 28.13"/><path fill="#61BFCB" d="M363.382 119L346 102.673l1.618-1.673L365 117.323"/><path fill="#28ADBE" d="M363.37 118L353 108.625l1.63-1.625 10.37 9.373"/><path fill="#61BFCB" d="M371.188 127L354 110.905l2.812-2.905L374 124.093"/><path fill="#28ADBE" d="M371.263 127L366 121.915l2.737-2.915 5.263 5.082"/><path fill="#61BFCB" d="M390.162 146L367 124.015l3.838-4.015L394 141.983"/><path fill="#28ADBE" d="M390.032 147L387 144.134l3.966-4.134 3.034 2.864"/><path fill="#61BFCB" d="M390.21 147l-2.21-2.065 4.788-4.935 2.212 2.063"/><path fill="#FDD9BA" d="M216.28 106.954l4.58-3.375 7.812-2.23 5.246-3.295.048-.055 4.034 3.752-4.26 4.91-2.566 4.05-1.95 3.288-1.448-.997.996-2.563.63-2.222-6.936-.2-3.75 2.543-1.39-1.3-.085-.058-1.24-1.8"/><path fill="#404042" d="M226 247.853l.828-5.853 6.954.85.917 1.214 12.874 1.455L250 248h-15.57l-2.43-1.21-.487 1.21"/><path fill="#2B3C64" d="M266.887 132.497l3.113 5.718-21.704 51.427-4.36 6.903-9.023 38.197L235.94 243l-9.94-1.18 1.293-37.998 4.393-11.908 9.452-41.054-2.708-13.018 2.703-9.842"/><path fill="#404042" d="M284.74 244.413l1.26 1.33-2.405 1.257-12.547-.305-1.883-1.152-.165 1.115-4.675-.053.025-2.44-.35-2.8 5.9-.365.613 1.536"/><path fill="#2B3C64" d="M269.9 242l-9.017-1.01-4.8-27.137-.083-24.767 2.02-8.717-1.74-45.614L266.79 130l12.21 4.314-6.97 47.063-1.885 2.508"/><path fill="#E5E6E7" d="M323 108.268l-6.848 12.076-9.34 6.946-9.91 7.774L280.74 143 264 134.506l8.2.268L318.096 102"/><path fill="#FDD9BA" d="M342.553 99.38l1.75-.834-2.73-1.47.98 2.305zm-10.096 11.41l-3.763-3.467-10.583-.977L318 93.51l.08-.01 6.077-4.98 7.956 1.247 3.034-3.162 1.692.65.36 2.82-1.83 3.42 1.16.706 3.986-3.56 2.027-4.64 1.527 2.377 4.93 5.897-.08.067-3.442 4.61-1.064.48-1.076 6.79-3.076-1.374-5.288 6.154-2.517-.21z"/><path fill="#5D0006" d="M353 93.28L350.1 95l-.526-.62-5.075-5.96-1.57-2.404-2.088 4.69-4.104 3.6-1.196-.713 1.887-3.456-.375-2.854-1.74-.656-3.124 3.197-8.19-1.26 9-9.032L338.55 78l4.263 1.398 10.18 9.94"/><path fill="#C1865B" d="M344 98.276l-1.923.724L341 97"/><path fill="#D0D2D3" d="M332 111l-3.918-3.552L327 99.314 329.082 97l-1.343 2.727M332.145 90.118l-1.33 2.795.63 1.79L333 95l-2.25-.15-.75-1.95 1.398-2.9"/><path fill="#FEFEFE" d="M319.824 108.776l-2.864.066-1.96-15.07L318.093 92l.283 1.15L323 109"/><path fill="#2B3C64" d="M292.374 129.35l-16.932 8.735L263.957 143l-9.246-4.673-7.556-4.82-8.684-6.722 28.07-17.227 11.065-2 5.25-5.447-19.8-.294-28.79 4.698-1.453-2.14-1.982-5-.83-2.513 38.986-9.046L294.88 82l5.49 1.88 12.82 9.293 3.094-1.1L319 104.486l-5.79 9.112-10.542 8.964"/><path fill="#FEFEFE" d="M323 109l-2.608 5-.392-1.662"/><path fill="#61BFCB" d="M323 109.21l-1.435 1.43-1.167.197-7.345 8.437-29.3 26.832L276 149l2.947-6.49 32.473-25.21 8.706-7.13.1-1.17"/><path fill="#1D2F58" d="M241.944 129l5.455 4.38 7.45 4.935 9.12 4.78 11.33-5.028 16.7-8.94-19.93 10.718-9.8 7.155L241 132.57M266 149l-7.492 31-.508-12.98M282.373 102.402L292 102l-11.954 8.847L259 112l6.983-2.273 11.116-1.967"/><path fill="#FDD9BA" d="M360 111.93l-1.05 2.782-2.222 2.288-1.728-1.42 2.643-3.076 1.22-1.504"/><path fill="#350000" d="M157 247.852l.828-5.852 6.953.855.918 1.208 12.877 1.455L181 248h-15.57l-2.43-1.21-.49 1.21M215.74 245.413l1.26 1.33-2.405 1.257-12.548-.305-1.88-1.154-.166 1.12-4.674-.053.025-2.44-.35-2.802 5.9-.365.614 1.537"/><path fill="#FDD9BA" d="M217 24.946l.535 4.996 1.66 6.197-.48 4.8-.01.06 2.983-.08 1.36-4.165L225 32.372l-.2-4.8-1.45.1.106 3.05-.47-1.19-.012-6.62-1.59-.912-2.767.833-.974.758M147.673 165.585l-1.408-5.363.857-7.892-1.09-5.945-.032-.064 4.968-2.32 2.944 5.624 2.78 3.78 2.308 2.942-1.46.96-1.994-1.82-1.816-1.365-2.768 6.228.95 4.314-1.72.798-.085.056-2.123.484"/><path fill="#2B3C64" d="M197.887 133.812l3.113 5.702-21.705 51.278-4.358 6.887-9.022 38.086 1.027 8.234-9.942-1.176 1.296-37.89 4.39-11.876 8.865-39.74-2.707-12.98L191.08 132"/><path fill="#2B3C64" d="M201.705 242l-8.89-1.01-4.735-27.14-.08-24.764 1.994-8.716-1.718-45.612L198.64 130l9.36 4.45-4.194 46.928-1.858 2.51"/><path fill="#2B3C64" d="M223.842 36.127l-4.23-.775-1.927-.352-7.405 24.61-14.5 10.767-.875.444L187 69.523 199.602 138l11.955-5.023-3.122-18.566-7.16-32.954 18.507-14.88L226 36.524"/><path fill="#E5E6E7" d="M189.734 67l8.75 10.82 3.022 10.216 3.967 17.89L208 135h-16.374l3.81-10.943L182 69.26"/><path fill="#FDD9BA" d="M188.06 45.062l-.114-1.983-2.4 2.06 2.515-.078zm6.793 13.898l-4.648 2.3-4.91 9.74-11.982-4.685.023-.08-2.336-7.66 4.17-7.132-1.792-4.078 1.24-1.374 2.765.71 2.485 3.026 1.096-.848-1.804-5.134-3.55-3.668 2.79-.57L185.746 37l.035.102 2.987 5.007.043 1.192 5.906 3.564-2.443 2.425L196 56.637l-1.147 2.324z"/><path fill="#893C3B" d="M186.496 33.415l.504 3.25-.745.25-7.166 2.453-2.717.556 3.46 3.582 1.758 5.02-1.07.827-2.422-2.957-2.692-.692-1.212 1.34 1.747 3.99L171.878 58 167 46.588l.614-5.587 2.778-3.36L182.958 32"/><path fill="#C1865B" d="M188.863 43l.137 1.925-3 .075"/><path fill="#D0D2D3" d="M195 58.565L190.274 61l-7.907-2.088L181 56l2.023 2.355M175.372 52l1.998 2.24 1.81.062.82-1.326-.94 2.024-1.993-.014L175 52.648"/><path fill="#FEFEFE" d="M188.625 69.505L187.642 72l-15.084-3.696L172 65l1.2.168 16.8 1.676"/><path fill="#2B3C64" d="M198.142 103.006l1.858 18.95-4.47 20.16-10.32.044-8.896-.857-10.755-2.034 4.692-19.637 2.225-11.008-3.115-6.89-7.575 18.26-6.26 28.452-2.52.553-5.37-.02-2.637-.157 5.986-39.524 4.157-26.18 3.77-4.394 13.347-8.45.118-3.276 12.52 2.084 6.315 8.75 4.43 13.104"/><path fill="#FEFEFE" d="M190 67l3 4-1.44-.18"/><path fill="#61BFCB" d="M190.227 67l.798 1.88-.25 1.17 5.127 10.05L210 117.64l-.19 8.36-4.946-5.192-11.406-39.912-3.403-10.84-1.055-.53"/><path fill="#1D2F58" d="M169 140.746l6.872 1.288 8.922.85 10.357-.045 4.482-20.023L197.77 104l3.23 32.32-5.64 10.68-25.618-2.737M197 149l-7.492 32-.508-13.4M168.86 101.978L172.025 93 176 107.272 168 127l1.753-7.253 2.235-10.928"/><path fill="#61BFCB" d="M202 37.655L192.937 43 192 41.345 201.063 36"/><path fill="#28ADBE" d="M203 37.718L197.037 41 196 39.282 201.96 36"/><path fill="#61BFCB" d="M207 35.82L197.69 41 196 38.18l9.31-5.18"/><path fill="#28ADBE" d="M208 36.17L204.828 38 203 34.83l3.17-1.83"/><path fill="#61BFCB" d="M218 30.91L205.327 38 203 34.09 215.673 27"/><path fill="#28ADBE" d="M218 30.196L215.184 32 213 27.804 215.818 26"/><path fill="#61BFCB" d="M238 20.555L217.107 33 214 27.447 234.89 15"/><path fill="#28ADBE" d="M238 20.46L233.337 23 230 17.54l4.66-2.54"/><path fill="#61BFCB" d="M256 10.52L235.18 23 231 15.48 251.82 3"/><path fill="#28ADBE" d="M256 10.344L249.412 14 245 6.654 251.588 3"/><path fill="#61BFCB" d="M260 9.094L251.965 14 247 4.906 255.036 0"/><path fill="#FDD9BA" d="M223.458 26l1.315 2.818L225 32h-2.3l-.44-4.06L222 26"/></g></svg>