<svg width="847" height="96" viewBox="0 0 847 96" fill="none" xmlns="http://www.w3.org/2000/svg">
<path d="M2.48168 35.5992L5.38743 38.6326L5.89005 39.167L9.4712 35.6935L6.10995 32.1415L2.48168 35.5992ZM5.87435 41.6346L4.91623 40.6287L1.24084 36.8094L1.11518 36.6837L0.565445 36.1179C0.39267 35.945 0.219895 35.8035 0.078534 35.6778C0.0471204 35.6621 0.0157068 35.6306 0 35.6149L0.455497 35.1749L11.9843 24V25.9332C11.9843 26.389 11.8901 26.6405 11.623 26.8762L10.7277 27.7721L7.36649 30.9784L10.7277 34.5933L10.9005 34.7662L11.623 35.4735C11.9058 35.7249 12 35.9764 12 36.4322V38.3183L10.7435 36.998L7.1466 40.4558L10.7435 44.2436L10.8377 44.3536L11.623 45.1395C11.9058 45.391 12 45.6424 12 46.0982V48L5.90576 41.6503L5.87435 41.6346Z" fill="#9E856F"/>
<path d="M2.48168 83.5992L5.38743 86.6326L5.89005 87.167L9.4712 83.6935L6.10995 80.1415L2.48168 83.5992ZM5.87435 89.6346L4.91623 88.6287L1.24084 84.8094L1.11518 84.6837L0.565445 84.1179C0.39267 83.945 0.219895 83.8035 0.078534 83.6778C0.0471204 83.6621 0.0157068 83.6306 0 83.6149L0.455497 83.1749L11.9843 72V73.9332C11.9843 74.389 11.8901 74.6405 11.623 74.8762L10.7277 75.7721L7.36649 78.9784L10.7277 82.5933L10.9005 82.7662L11.623 83.4735C11.9058 83.7249 12 83.9764 12 84.4322V86.3183L10.7435 84.998L7.1466 88.4558L10.7435 92.2436L10.8377 92.3536L11.623 93.1395C11.9058 93.391 12 93.6424 12 94.0982V96L5.90576 89.6503L5.87435 89.6346Z" fill="#9E856F"/>
<path d="M152.482 35.5992L155.387 38.6326L155.89 39.167L159.471 35.6935L156.11 32.1415L152.482 35.5992ZM155.874 41.6346L154.916 40.6287L151.241 36.8094L151.115 36.6837L150.565 36.1179C150.393 35.945 150.22 35.8035 150.079 35.6778C150.047 35.6621 150.016 35.6306 150 35.6149L150.455 35.1749L161.984 24V25.9332C161.984 26.389 161.89 26.6405 161.623 26.8762L160.728 27.7721L157.366 30.9784L160.728 34.5933L160.901 34.7662L161.623 35.4735C161.906 35.7249 162 35.9764 162 36.4322V38.3183L160.743 36.998L157.147 40.4558L160.743 44.2436L160.838 44.3536L161.623 45.1395C161.906 45.391 162 45.6424 162 46.0982V48L155.906 41.6503L155.874 41.6346Z" fill="#9E856F"/>
<path d="M302.482 35.5992L305.387 38.6326L305.89 39.167L309.471 35.6935L306.11 32.1415L302.482 35.5992ZM305.874 41.6346L304.916 40.6287L301.241 36.8094L301.115 36.6837L300.565 36.1179C300.393 35.945 300.22 35.8035 300.079 35.6778C300.047 35.6621 300.016 35.6306 300 35.6149L300.455 35.1749L311.984 24V25.9332C311.984 26.389 311.89 26.6405 311.623 26.8762L310.728 27.7721L307.366 30.9784L310.728 34.5933L310.901 34.7662L311.623 35.4735C311.906 35.7249 312 35.9764 312 36.4322V38.3183L310.743 36.998L307.147 40.4558L310.743 44.2436L310.838 44.3536L311.623 45.1395C311.906 45.391 312 45.6424 312 46.0982V48L305.906 41.6503L305.874 41.6346Z" fill="#9E856F"/>
<path d="M452.482 35.5992L455.387 38.6326L455.89 39.167L459.471 35.6935L456.11 32.1415L452.482 35.5992ZM455.874 41.6346L454.916 40.6287L451.241 36.8094L451.115 36.6837L450.565 36.1179C450.393 35.945 450.22 35.8035 450.079 35.6778C450.047 35.6621 450.016 35.6306 450 35.6149L450.455 35.1749L461.984 24V25.9332C461.984 26.389 461.89 26.6405 461.623 26.8762L460.728 27.7721L457.366 30.9784L460.728 34.5933L460.901 34.7662L461.623 35.4735C461.906 35.7249 462 35.9764 462 36.4322V38.3183L460.743 36.998L457.147 40.4558L460.743 44.2436L460.838 44.3536L461.623 45.1395C461.906 45.391 462 45.6424 462 46.0982V48L455.906 41.6503L455.874 41.6346Z" fill="#9E856F"/>
<path d="M602.482 35.5992L605.387 38.6326L605.89 39.167L609.471 35.6935L606.11 32.1415L602.482 35.5992ZM605.874 41.6346L604.916 40.6287L601.241 36.8094L601.115 36.6837L600.565 36.1179C600.393 35.945 600.22 35.8035 600.079 35.6778C600.047 35.6621 600.016 35.6306 600 35.6149L600.455 35.1749L611.984 24V25.9332C611.984 26.389 611.89 26.6405 611.623 26.8762L610.728 27.7721L607.366 30.9784L610.728 34.5933L610.901 34.7662L611.623 35.4735C611.906 35.7249 612 35.9764 612 36.4322V38.3183L610.743 36.998L607.147 40.4558L610.743 44.2436L610.838 44.3536L611.623 45.1395C611.906 45.391 612 45.6424 612 46.0982V48L605.906 41.6503L605.874 41.6346Z" fill="#9E856F"/>
<path d="M752.482 35.5992L755.387 38.6326L755.89 39.167L759.471 35.6935L756.11 32.1415L752.482 35.5992ZM755.874 41.6346L754.916 40.6287L751.241 36.8094L751.115 36.6837L750.565 36.1179C750.393 35.945 750.22 35.8035 750.079 35.6778C750.047 35.6621 750.016 35.6306 750 35.6149L750.455 35.1749L761.984 24V25.9332C761.984 26.389 761.89 26.6405 761.623 26.8762L760.728 27.7721L757.366 30.9784L760.728 34.5933L760.901 34.7662L761.623 35.4735C761.906 35.7249 762 35.9764 762 36.4322V38.3183L760.743 36.998L757.147 40.4558L760.743 44.2436L760.838 44.3536L761.623 45.1395C761.906 45.391 762 45.6424 762 46.0982V48L755.906 41.6503L755.874 41.6346Z" fill="#9E856F"/>
<path d="M39.4692 11.623L42.3788 14.6545L42.882 15.1885L46.4679 11.7173L43.1022 8.16754L39.4849 11.623H39.4692ZM42.8663 17.6387L41.9069 16.6335L38.2267 12.8168L38.1166 12.6911L37.5662 12.1257C37.3932 11.9529 37.2202 11.7958 37.0786 11.6859C37.0472 11.6702 37.0157 11.6387 37 11.623L37.4561 11.1832L48.9685 0V1.93194C48.9685 2.38743 48.8742 2.63874 48.6068 2.89005L47.7104 3.78534L44.3447 6.98953L47.7104 10.6021L47.8834 10.7749L48.6068 11.4817C48.8899 11.733 48.9843 11.9843 48.9843 12.4398V14.3246L47.7261 13.0052L44.1245 16.4607L47.7261 20.2461L47.8362 20.356L48.6225 21.1414C48.9056 21.3927 49 21.644 49 22.0995V24L42.8978 17.6544L42.8663 17.6387Z" fill="#9E856F"/>
<path d="M189.469 11.623L192.379 14.6545L192.882 15.1885L196.468 11.7173L193.102 8.16754L189.485 11.623H189.469ZM192.866 17.6387L191.907 16.6335L188.227 12.8168L188.117 12.6911L187.566 12.1257C187.393 11.9529 187.22 11.7958 187.079 11.6859C187.047 11.6702 187.016 11.6387 187 11.623L187.456 11.1832L198.969 0V1.93194C198.969 2.38743 198.874 2.63874 198.607 2.89005L197.71 3.78534L194.345 6.98953L197.71 10.6021L197.883 10.7749L198.607 11.4817C198.89 11.733 198.984 11.9843 198.984 12.4398V14.3246L197.726 13.0052L194.125 16.4607L197.726 20.2461L197.836 20.356L198.623 21.1414C198.906 21.3927 199 21.644 199 22.0995V24L192.898 17.6544L192.866 17.6387Z" fill="#9E856F"/>
<path d="M339.469 11.623L342.379 14.6545L342.882 15.1885L346.468 11.7173L343.102 8.16754L339.485 11.623H339.469ZM342.866 17.6387L341.907 16.6335L338.227 12.8168L338.117 12.6911L337.566 12.1257C337.393 11.9529 337.22 11.7958 337.079 11.6859C337.047 11.6702 337.016 11.6387 337 11.623L337.456 11.1832L348.969 0V1.93194C348.969 2.38743 348.874 2.63874 348.607 2.89005L347.71 3.78534L344.345 6.98953L347.71 10.6021L347.883 10.7749L348.607 11.4817C348.89 11.733 348.984 11.9843 348.984 12.4398V14.3246L347.726 13.0052L344.125 16.4607L347.726 20.2461L347.836 20.356L348.623 21.1414C348.906 21.3927 349 21.644 349 22.0995V24L342.898 17.6544L342.866 17.6387Z" fill="#9E856F"/>
<path d="M489.469 11.623L492.379 14.6545L492.882 15.1885L496.468 11.7173L493.102 8.16754L489.485 11.623H489.469ZM492.866 17.6387L491.907 16.6335L488.227 12.8168L488.117 12.6911L487.566 12.1257C487.393 11.9529 487.22 11.7958 487.079 11.6859C487.047 11.6702 487.016 11.6387 487 11.623L487.456 11.1832L498.969 0V1.93194C498.969 2.38743 498.874 2.63874 498.607 2.89005L497.71 3.78534L494.345 6.98953L497.71 10.6021L497.883 10.7749L498.607 11.4817C498.89 11.733 498.984 11.9843 498.984 12.4398V14.3246L497.726 13.0052L494.125 16.4607L497.726 20.2461L497.836 20.356L498.623 21.1414C498.906 21.3927 499 21.644 499 22.0995V24L492.898 17.6544L492.866 17.6387Z" fill="#9E856F"/>
<path d="M639.469 11.623L642.379 14.6545L642.882 15.1885L646.468 11.7173L643.102 8.16754L639.485 11.623H639.469ZM642.866 17.6387L641.907 16.6335L638.227 12.8168L638.117 12.6911L637.566 12.1257C637.393 11.9529 637.22 11.7958 637.079 11.6859C637.047 11.6702 637.016 11.6387 637 11.623L637.456 11.1832L648.969 0V1.93194C648.969 2.38743 648.874 2.63874 648.607 2.89005L647.71 3.78534L644.345 6.98953L647.71 10.6021L647.883 10.7749L648.607 11.4817C648.89 11.733 648.984 11.9843 648.984 12.4398V14.3246L647.726 13.0052L644.125 16.4607L647.726 20.2461L647.836 20.356L648.623 21.1414C648.906 21.3927 649 21.644 649 22.0995V24L642.898 17.6544L642.866 17.6387Z" fill="#9E856F"/>
<path d="M789.469 11.623L792.379 14.6545L792.882 15.1885L796.468 11.7173L793.102 8.16754L789.485 11.623H789.469ZM792.866 17.6387L791.907 16.6335L788.227 12.8168L788.117 12.6911L787.566 12.1257C787.393 11.9529 787.22 11.7958 787.079 11.6859C787.047 11.6702 787.016 11.6387 787 11.623L787.456 11.1832L798.969 0V1.93194C798.969 2.38743 798.874 2.63874 798.607 2.89005L797.71 3.78534L794.345 6.98953L797.71 10.6021L797.883 10.7749L798.607 11.4817C798.89 11.733 798.984 11.9843 798.984 12.4398V14.3246L797.726 13.0052L794.125 16.4607L797.726 20.2461L797.836 20.356L798.623 21.1414C798.906 21.3927 799 21.644 799 22.0995V24L792.898 17.6544L792.866 17.6387Z" fill="#9E856F"/>
<path d="M114.469 11.623L117.379 14.6545L117.882 15.1885L121.468 11.7173L118.102 8.16754L114.485 11.623H114.469ZM117.866 17.6387L116.907 16.6335L113.227 12.8168L113.117 12.6911L112.566 12.1257C112.393 11.9529 112.22 11.7958 112.079 11.6859C112.047 11.6702 112.016 11.6387 112 11.623L112.456 11.1832L123.969 0V1.93194C123.969 2.38743 123.874 2.63874 123.607 2.89005L122.71 3.78534L119.345 6.98953L122.71 10.6021L122.883 10.7749L123.607 11.4817C123.89 11.733 123.984 11.9843 123.984 12.4398V14.3246L122.726 13.0052L119.125 16.4607L122.726 20.2461L122.836 20.356L123.623 21.1414C123.906 21.3927 124 21.644 124 22.0995V24L117.898 17.6544L117.866 17.6387Z" fill="#9E856F"/>
<path d="M264.469 11.623L267.379 14.6545L267.882 15.1885L271.468 11.7173L268.102 8.16754L264.485 11.623H264.469ZM267.866 17.6387L266.907 16.6335L263.227 12.8168L263.117 12.6911L262.566 12.1257C262.393 11.9529 262.22 11.7958 262.079 11.6859C262.047 11.6702 262.016 11.6387 262 11.623L262.456 11.1832L273.969 0V1.93194C273.969 2.38743 273.874 2.63874 273.607 2.89005L272.71 3.78534L269.345 6.98953L272.71 10.6021L272.883 10.7749L273.607 11.4817C273.89 11.733 273.984 11.9843 273.984 12.4398V14.3246L272.726 13.0052L269.125 16.4607L272.726 20.2461L272.836 20.356L273.623 21.1414C273.906 21.3927 274 21.644 274 22.0995V24L267.898 17.6544L267.866 17.6387Z" fill="#9E856F"/>
<path d="M414.469 11.623L417.379 14.6545L417.882 15.1885L421.468 11.7173L418.102 8.16754L414.485 11.623H414.469ZM417.866 17.6387L416.907 16.6335L413.227 12.8168L413.117 12.6911L412.566 12.1257C412.393 11.9529 412.22 11.7958 412.079 11.6859C412.047 11.6702 412.016 11.6387 412 11.623L412.456 11.1832L423.969 0V1.93194C423.969 2.38743 423.874 2.63874 423.607 2.89005L422.71 3.78534L419.345 6.98953L422.71 10.6021L422.883 10.7749L423.607 11.4817C423.89 11.733 423.984 11.9843 423.984 12.4398V14.3246L422.726 13.0052L419.125 16.4607L422.726 20.2461L422.836 20.356L423.623 21.1414C423.906 21.3927 424 21.644 424 22.0995V24L417.898 17.6544L417.866 17.6387Z" fill="#9E856F"/>
<path d="M564.469 11.623L567.379 14.6545L567.882 15.1885L571.468 11.7173L568.102 8.16754L564.485 11.623H564.469ZM567.866 17.6387L566.907 16.6335L563.227 12.8168L563.117 12.6911L562.566 12.1257C562.393 11.9529 562.22 11.7958 562.079 11.6859C562.047 11.6702 562.016 11.6387 562 11.623L562.456 11.1832L573.969 0V1.93194C573.969 2.38743 573.874 2.63874 573.607 2.89005L572.71 3.78534L569.345 6.98953L572.71 10.6021L572.883 10.7749L573.607 11.4817C573.89 11.733 573.984 11.9843 573.984 12.4398V14.3246L572.726 13.0052L569.125 16.4607L572.726 20.2461L572.836 20.356L573.623 21.1414C573.906 21.3927 574 21.644 574 22.0995V24L567.898 17.6544L567.866 17.6387Z" fill="#9E856F"/>
<path d="M714.469 11.623L717.379 14.6545L717.882 15.1885L721.468 11.7173L718.102 8.16754L714.485 11.623H714.469ZM717.866 17.6387L716.907 16.6335L713.227 12.8168L713.117 12.6911L712.566 12.1257C712.393 11.9529 712.22 11.7958 712.079 11.6859C712.047 11.6702 712.016 11.6387 712 11.623L712.456 11.1832L723.969 0V1.93194C723.969 2.38743 723.874 2.63874 723.607 2.89005L722.71 3.78534L719.345 6.98953L722.71 10.6021L722.883 10.7749L723.607 11.4817C723.89 11.733 723.984 11.9843 723.984 12.4398V14.3246L722.726 13.0052L719.125 16.4607L722.726 20.2461L722.836 20.356L723.623 21.1414C723.906 21.3927 724 21.644 724 22.0995V24L717.898 17.6544L717.866 17.6387Z" fill="#9E856F"/>
<path d="M77.4692 35.5992L80.3788 38.6326L80.882 39.167L84.4679 35.6935L81.0865 32.1415L77.4692 35.5992ZM80.8663 41.6346L79.9069 40.6287L76.2425 36.8094L76.1324 36.6837L75.5819 36.1179C75.4089 35.945 75.2359 35.8035 75.0944 35.6778C75.0629 35.6621 75.0315 35.6306 75 35.6149L75.4561 35.1749L87 24V25.9332C87 26.389 86.9056 26.6405 86.6383 26.8762L85.7418 27.7721L82.3761 30.9784L85.7418 34.5933L85.8991 34.7662L86.6225 35.4735C86.9056 35.7249 87 35.9764 87 36.4322V38.3183L85.7418 36.998L82.1402 40.4558L85.7418 44.2436L85.8362 44.3536L86.6225 45.1395C86.9056 45.391 87 45.6424 87 46.0982V48L80.8978 41.6503L80.8663 41.6346Z" fill="#9E856F"/>
<path d="M77.4692 83.5992L80.3788 86.6326L80.882 87.167L84.4679 83.6935L81.0865 80.1415L77.4692 83.5992ZM80.8663 89.6346L79.9069 88.6287L76.2425 84.8094L76.1324 84.6837L75.5819 84.1179C75.4089 83.945 75.2359 83.8035 75.0944 83.6778C75.0629 83.6621 75.0315 83.6306 75 83.6149L75.4561 83.1749L87 72V73.9332C87 74.389 86.9056 74.6405 86.6383 74.8762L85.7418 75.7721L82.3761 78.9784L85.7418 82.5933L85.8991 82.7662L86.6225 83.4735C86.9056 83.7249 87 83.9764 87 84.4322V86.3183L85.7418 84.998L82.1402 88.4558L85.7418 92.2436L85.8362 92.3536L86.6225 93.1395C86.9056 93.391 87 93.6424 87 94.0982V96L80.8978 89.6503L80.8663 89.6346Z" fill="#9E856F"/>
<path d="M153.469 83.5992L156.379 86.6326L156.882 87.167L160.468 83.6935L157.087 80.1415L153.469 83.5992ZM156.866 89.6346L155.907 88.6287L152.242 84.8094L152.132 84.6837L151.582 84.1179C151.409 83.945 151.236 83.8035 151.094 83.6778C151.063 83.6621 151.031 83.6306 151 83.6149L151.456 83.1749L163 72V73.9332C163 74.389 162.906 74.6405 162.638 74.8762L161.742 75.7721L158.376 78.9784L161.742 82.5933L161.899 82.7662L162.623 83.4735C162.906 83.7249 163 83.9764 163 84.4322V86.3183L161.742 84.998L158.14 88.4558L161.742 92.2436L161.836 92.3536L162.623 93.1395C162.906 93.391 163 93.6424 163 94.0982V96L156.898 89.6503L156.866 89.6346Z" fill="#9E856F"/>
<path d="M229.469 83.5992L232.379 86.6326L232.882 87.167L236.468 83.6935L233.087 80.1415L229.469 83.5992ZM232.866 89.6346L231.907 88.6287L228.242 84.8094L228.132 84.6837L227.582 84.1179C227.409 83.945 227.236 83.8035 227.094 83.6778C227.063 83.6621 227.031 83.6306 227 83.6149L227.456 83.1749L239 72V73.9332C239 74.389 238.906 74.6405 238.638 74.8762L237.742 75.7721L234.376 78.9784L237.742 82.5933L237.899 82.7662L238.623 83.4735C238.906 83.7249 239 83.9764 239 84.4322V86.3183L237.742 84.998L234.14 88.4558L237.742 92.2436L237.836 92.3536L238.623 93.1395C238.906 93.391 239 93.6424 239 94.0982V96L232.898 89.6503L232.866 89.6346Z" fill="#9E856F"/>
<path d="M305.469 83.5992L308.379 86.6326L308.882 87.167L312.468 83.6935L309.087 80.1415L305.469 83.5992ZM308.866 89.6346L307.907 88.6287L304.242 84.8094L304.132 84.6837L303.582 84.1179C303.409 83.945 303.236 83.8035 303.094 83.6778C303.063 83.6621 303.031 83.6306 303 83.6149L303.456 83.1749L315 72V73.9332C315 74.389 314.906 74.6405 314.638 74.8762L313.742 75.7721L310.376 78.9784L313.742 82.5933L313.899 82.7662L314.623 83.4735C314.906 83.7249 315 83.9764 315 84.4322V86.3183L313.742 84.998L310.14 88.4558L313.742 92.2436L313.836 92.3536L314.623 93.1395C314.906 93.391 315 93.6424 315 94.0982V96L308.898 89.6503L308.866 89.6346Z" fill="#9E856F"/>
<path d="M381.469 83.5992L384.379 86.6326L384.882 87.167L388.468 83.6935L385.087 80.1415L381.469 83.5992ZM384.866 89.6346L383.907 88.6287L380.242 84.8094L380.132 84.6837L379.582 84.1179C379.409 83.945 379.236 83.8035 379.094 83.6778C379.063 83.6621 379.031 83.6306 379 83.6149L379.456 83.1749L391 72V73.9332C391 74.389 390.906 74.6405 390.638 74.8762L389.742 75.7721L386.376 78.9784L389.742 82.5933L389.899 82.7662L390.623 83.4735C390.906 83.7249 391 83.9764 391 84.4322V86.3183L389.742 84.998L386.14 88.4558L389.742 92.2436L389.836 92.3536L390.623 93.1395C390.906 93.391 391 93.6424 391 94.0982V96L384.898 89.6503L384.866 89.6346Z" fill="#9E856F"/>
<path d="M457.469 83.5992L460.379 86.6326L460.882 87.167L464.468 83.6935L461.087 80.1415L457.469 83.5992ZM460.866 89.6346L459.907 88.6287L456.242 84.8094L456.132 84.6837L455.582 84.1179C455.409 83.945 455.236 83.8035 455.094 83.6778C455.063 83.6621 455.031 83.6306 455 83.6149L455.456 83.1749L467 72V73.9332C467 74.389 466.906 74.6405 466.638 74.8762L465.742 75.7721L462.376 78.9784L465.742 82.5933L465.899 82.7662L466.623 83.4735C466.906 83.7249 467 83.9764 467 84.4322V86.3183L465.742 84.998L462.14 88.4558L465.742 92.2436L465.836 92.3536L466.623 93.1395C466.906 93.391 467 93.6424 467 94.0982V96L460.898 89.6503L460.866 89.6346Z" fill="#9E856F"/>
<path d="M533.469 83.5992L536.379 86.6326L536.882 87.167L540.468 83.6935L537.087 80.1415L533.469 83.5992ZM536.866 89.6346L535.907 88.6287L532.242 84.8094L532.132 84.6837L531.582 84.1179C531.409 83.945 531.236 83.8035 531.094 83.6778C531.063 83.6621 531.031 83.6306 531 83.6149L531.456 83.1749L543 72V73.9332C543 74.389 542.906 74.6405 542.638 74.8762L541.742 75.7721L538.376 78.9784L541.742 82.5933L541.899 82.7662L542.623 83.4735C542.906 83.7249 543 83.9764 543 84.4322V86.3183L541.742 84.998L538.14 88.4558L541.742 92.2436L541.836 92.3536L542.623 93.1395C542.906 93.391 543 93.6424 543 94.0982V96L536.898 89.6503L536.866 89.6346Z" fill="#9E856F"/>
<path d="M609.469 83.5992L612.379 86.6326L612.882 87.167L616.468 83.6935L613.087 80.1415L609.469 83.5992ZM612.866 89.6346L611.907 88.6287L608.242 84.8094L608.132 84.6837L607.582 84.1179C607.409 83.945 607.236 83.8035 607.094 83.6778C607.063 83.6621 607.031 83.6306 607 83.6149L607.456 83.1749L619 72V73.9332C619 74.389 618.906 74.6405 618.638 74.8762L617.742 75.7721L614.376 78.9784L617.742 82.5933L617.899 82.7662L618.623 83.4735C618.906 83.7249 619 83.9764 619 84.4322V86.3183L617.742 84.998L614.14 88.4558L617.742 92.2436L617.836 92.3536L618.623 93.1395C618.906 93.391 619 93.6424 619 94.0982V96L612.898 89.6503L612.866 89.6346Z" fill="#9E856F"/>
<path d="M685.469 83.5992L688.379 86.6326L688.882 87.167L692.468 83.6935L689.087 80.1415L685.469 83.5992ZM688.866 89.6346L687.907 88.6287L684.242 84.8094L684.132 84.6837L683.582 84.1179C683.409 83.945 683.236 83.8035 683.094 83.6778C683.063 83.6621 683.031 83.6306 683 83.6149L683.456 83.1749L695 72V73.9332C695 74.389 694.906 74.6405 694.638 74.8762L693.742 75.7721L690.376 78.9784L693.742 82.5933L693.899 82.7662L694.623 83.4735C694.906 83.7249 695 83.9764 695 84.4322V86.3183L693.742 84.998L690.14 88.4558L693.742 92.2436L693.836 92.3536L694.623 93.1395C694.906 93.391 695 93.6424 695 94.0982V96L688.898 89.6503L688.866 89.6346Z" fill="#9E856F"/>
<path d="M761.469 83.5992L764.379 86.6326L764.882 87.167L768.468 83.6935L765.087 80.1415L761.469 83.5992ZM764.866 89.6346L763.907 88.6287L760.242 84.8094L760.132 84.6837L759.582 84.1179C759.409 83.945 759.236 83.8035 759.094 83.6778C759.063 83.6621 759.031 83.6306 759 83.6149L759.456 83.1749L771 72V73.9332C771 74.389 770.906 74.6405 770.638 74.8762L769.742 75.7721L766.376 78.9784L769.742 82.5933L769.899 82.7662L770.623 83.4735C770.906 83.7249 771 83.9764 771 84.4322V86.3183L769.742 84.998L766.14 88.4558L769.742 92.2436L769.836 92.3536L770.623 93.1395C770.906 93.391 771 93.6424 771 94.0982V96L764.898 89.6503L764.866 89.6346Z" fill="#9E856F"/>
<path d="M837.469 83.5992L840.379 86.6326L840.882 87.167L844.468 83.6935L841.087 80.1415L837.469 83.5992ZM840.866 89.6346L839.907 88.6287L836.242 84.8094L836.132 84.6837L835.582 84.1179C835.409 83.945 835.236 83.8035 835.094 83.6778C835.063 83.6621 835.031 83.6306 835 83.6149L835.456 83.1749L847 72V73.9332C847 74.389 846.906 74.6405 846.638 74.8762L845.742 75.7721L842.376 78.9784L845.742 82.5933L845.899 82.7662L846.623 83.4735C846.906 83.7249 847 83.9764 847 84.4322V86.3183L845.742 84.998L842.14 88.4558L845.742 92.2436L845.836 92.3536L846.623 93.1395C846.906 93.391 847 93.6424 847 94.0982V96L840.898 89.6503L840.866 89.6346Z" fill="#9E856F"/>
<path d="M227.469 35.5992L230.379 38.6326L230.882 39.167L234.468 35.6935L231.087 32.1415L227.469 35.5992ZM230.866 41.6346L229.907 40.6287L226.242 36.8094L226.132 36.6837L225.582 36.1179C225.409 35.945 225.236 35.8035 225.094 35.6778C225.063 35.6621 225.031 35.6306 225 35.6149L225.456 35.1749L237 24V25.9332C237 26.389 236.906 26.6405 236.638 26.8762L235.742 27.7721L232.376 30.9784L235.742 34.5933L235.899 34.7662L236.623 35.4735C236.906 35.7249 237 35.9764 237 36.4322V38.3183L235.742 36.998L232.14 40.4558L235.742 44.2436L235.836 44.3536L236.623 45.1395C236.906 45.391 237 45.6424 237 46.0982V48L230.898 41.6503L230.866 41.6346Z" fill="#9E856F"/>
<path d="M377.469 35.5992L380.379 38.6326L380.882 39.167L384.468 35.6935L381.087 32.1415L377.469 35.5992ZM380.866 41.6346L379.907 40.6287L376.242 36.8094L376.132 36.6837L375.582 36.1179C375.409 35.945 375.236 35.8035 375.094 35.6778C375.063 35.6621 375.031 35.6306 375 35.6149L375.456 35.1749L387 24V25.9332C387 26.389 386.906 26.6405 386.638 26.8762L385.742 27.7721L382.376 30.9784L385.742 34.5933L385.899 34.7662L386.623 35.4735C386.906 35.7249 387 35.9764 387 36.4322V38.3183L385.742 36.998L382.14 40.4558L385.742 44.2436L385.836 44.3536L386.623 45.1395C386.906 45.391 387 45.6424 387 46.0982V48L380.898 41.6503L380.866 41.6346Z" fill="#9E856F"/>
<path d="M527.469 35.5992L530.379 38.6326L530.882 39.167L534.468 35.6935L531.087 32.1415L527.469 35.5992ZM530.866 41.6346L529.907 40.6287L526.242 36.8094L526.132 36.6837L525.582 36.1179C525.409 35.945 525.236 35.8035 525.094 35.6778C525.063 35.6621 525.031 35.6306 525 35.6149L525.456 35.1749L537 24V25.9332C537 26.389 536.906 26.6405 536.638 26.8762L535.742 27.7721L532.376 30.9784L535.742 34.5933L535.899 34.7662L536.623 35.4735C536.906 35.7249 537 35.9764 537 36.4322V38.3183L535.742 36.998L532.14 40.4558L535.742 44.2436L535.836 44.3536L536.623 45.1395C536.906 45.391 537 45.6424 537 46.0982V48L530.898 41.6503L530.866 41.6346Z" fill="#9E856F"/>
<path d="M677.469 35.5992L680.379 38.6326L680.882 39.167L684.468 35.6935L681.087 32.1415L677.469 35.5992ZM680.866 41.6346L679.907 40.6287L676.242 36.8094L676.132 36.6837L675.582 36.1179C675.409 35.945 675.236 35.8035 675.094 35.6778C675.063 35.6621 675.031 35.6306 675 35.6149L675.456 35.1749L687 24V25.9332C687 26.389 686.906 26.6405 686.638 26.8762L685.742 27.7721L682.376 30.9784L685.742 34.5933L685.899 34.7662L686.623 35.4735C686.906 35.7249 687 35.9764 687 36.4322V38.3183L685.742 36.998L682.14 40.4558L685.742 44.2436L685.836 44.3536L686.623 45.1395C686.906 45.391 687 45.6424 687 46.0982V48L680.898 41.6503L680.866 41.6346Z" fill="#9E856F"/>
<path d="M827.469 35.5992L830.379 38.6326L830.882 39.167L834.468 35.6935L831.087 32.1415L827.469 35.5992ZM830.866 41.6346L829.907 40.6287L826.242 36.8094L826.132 36.6837L825.582 36.1179C825.409 35.945 825.236 35.8035 825.094 35.6778C825.063 35.6621 825.031 35.6306 825 35.6149L825.456 35.1749L837 24V25.9332C837 26.389 836.906 26.6405 836.638 26.8762L835.742 27.7721L832.376 30.9784L835.742 34.5933L835.899 34.7662L836.623 35.4735C836.906 35.7249 837 35.9764 837 36.4322V38.3183L835.742 36.998L832.14 40.4558L835.742 44.2436L835.836 44.3536L836.623 45.1395C836.906 45.391 837 45.6424 837 46.0982V48L830.898 41.6503L830.866 41.6346Z" fill="#9E856F"/>
<path d="M39.5164 59.6149L42.4259 62.6483L42.9292 63.1827L46.5151 59.7092L43.1337 56.1572L39.5164 59.6149ZM42.8978 65.6503L41.9384 64.6444L38.2582 60.8251L38.1324 60.6994L37.5819 60.1336C37.4089 59.9607 37.2359 59.8193 37.0944 59.6935C37.0629 59.6778 37.0472 59.6464 37 59.6306L37.4561 59.1906L49 48V49.9332C49 50.389 48.9056 50.6405 48.6383 50.8762L47.7418 51.7721L44.3761 54.9784L47.7418 58.5933L47.8991 58.7662L48.6225 59.4735C48.9056 59.7249 49 59.9764 49 60.4322V62.3183L47.7418 60.998L44.1402 64.4558L47.7418 68.2436L47.8362 68.3536L48.6225 69.1395C48.9056 69.391 49 69.6424 49 70.0982V72L42.8978 65.6503Z" fill="#9E856F"/>
<path d="M189.516 59.6149L192.426 62.6483L192.929 63.1827L196.515 59.7092L193.134 56.1572L189.516 59.6149ZM192.898 65.6503L191.938 64.6444L188.258 60.8251L188.132 60.6994L187.582 60.1336C187.409 59.9607 187.236 59.8193 187.094 59.6935C187.063 59.6778 187.047 59.6464 187 59.6306L187.456 59.1906L199 48V49.9332C199 50.389 198.906 50.6405 198.638 50.8762L197.742 51.7721L194.376 54.9784L197.742 58.5933L197.899 58.7662L198.623 59.4735C198.906 59.7249 199 59.9764 199 60.4322V62.3183L197.742 60.998L194.14 64.4558L197.742 68.2436L197.836 68.3536L198.623 69.1395C198.906 69.391 199 69.6424 199 70.0982V72L192.898 65.6503Z" fill="#9E856F"/>
<path d="M339.516 59.6149L342.426 62.6483L342.929 63.1827L346.515 59.7092L343.134 56.1572L339.516 59.6149ZM342.898 65.6503L341.938 64.6444L338.258 60.8251L338.132 60.6994L337.582 60.1336C337.409 59.9607 337.236 59.8193 337.094 59.6935C337.063 59.6778 337.047 59.6464 337 59.6306L337.456 59.1906L349 48V49.9332C349 50.389 348.906 50.6405 348.638 50.8762L347.742 51.7721L344.376 54.9784L347.742 58.5933L347.899 58.7662L348.623 59.4735C348.906 59.7249 349 59.9764 349 60.4322V62.3183L347.742 60.998L344.14 64.4558L347.742 68.2436L347.836 68.3536L348.623 69.1395C348.906 69.391 349 69.6424 349 70.0982V72L342.898 65.6503Z" fill="#9E856F"/>
<path d="M489.516 59.6149L492.426 62.6483L492.929 63.1827L496.515 59.7092L493.134 56.1572L489.516 59.6149ZM492.898 65.6503L491.938 64.6444L488.258 60.8251L488.132 60.6994L487.582 60.1336C487.409 59.9607 487.236 59.8193 487.094 59.6935C487.063 59.6778 487.047 59.6464 487 59.6306L487.456 59.1906L499 48V49.9332C499 50.389 498.906 50.6405 498.638 50.8762L497.742 51.7721L494.376 54.9784L497.742 58.5933L497.899 58.7662L498.623 59.4735C498.906 59.7249 499 59.9764 499 60.4322V62.3183L497.742 60.998L494.14 64.4558L497.742 68.2436L497.836 68.3536L498.623 69.1395C498.906 69.391 499 69.6424 499 70.0982V72L492.898 65.6503Z" fill="#9E856F"/>
<path d="M639.516 59.6149L642.426 62.6483L642.929 63.1827L646.515 59.7092L643.134 56.1572L639.516 59.6149ZM642.898 65.6503L641.938 64.6444L638.258 60.8251L638.132 60.6994L637.582 60.1336C637.409 59.9607 637.236 59.8193 637.094 59.6935C637.063 59.6778 637.047 59.6464 637 59.6306L637.456 59.1906L649 48V49.9332C649 50.389 648.906 50.6405 648.638 50.8762L647.742 51.7721L644.376 54.9784L647.742 58.5933L647.899 58.7662L648.623 59.4735C648.906 59.7249 649 59.9764 649 60.4322V62.3183L647.742 60.998L644.14 64.4558L647.742 68.2436L647.836 68.3536L648.623 69.1395C648.906 69.391 649 69.6424 649 70.0982V72L642.898 65.6503Z" fill="#9E856F"/>
<path d="M789.516 59.6149L792.426 62.6483L792.929 63.1827L796.515 59.7092L793.134 56.1572L789.516 59.6149ZM792.898 65.6503L791.938 64.6444L788.258 60.8251L788.132 60.6994L787.582 60.1336C787.409 59.9607 787.236 59.8193 787.094 59.6935C787.063 59.6778 787.047 59.6464 787 59.6306L787.456 59.1906L799 48V49.9332C799 50.389 798.906 50.6405 798.638 50.8762L797.742 51.7721L794.376 54.9784L797.742 58.5933L797.899 58.7662L798.623 59.4735C798.906 59.7249 799 59.9764 799 60.4322V62.3183L797.742 60.998L794.14 64.4558L797.742 68.2436L797.836 68.3536L798.623 69.1395C798.906 69.391 799 69.6424 799 70.0982V72L792.898 65.6503Z" fill="#9E856F"/>
<path d="M114.516 59.6149L117.426 62.6483L117.929 63.1827L121.515 59.7092L118.134 56.1572L114.516 59.6149ZM117.898 65.6503L116.938 64.6444L113.258 60.8251L113.132 60.6994L112.582 60.1336C112.409 59.9607 112.236 59.8193 112.094 59.6935C112.063 59.6778 112.047 59.6464 112 59.6306L112.456 59.1906L124 48V49.9332C124 50.389 123.906 50.6405 123.638 50.8762L122.742 51.7721L119.376 54.9784L122.742 58.5933L122.899 58.7662L123.623 59.4735C123.906 59.7249 124 59.9764 124 60.4322V62.3183L122.742 60.998L119.14 64.4558L122.742 68.2436L122.836 68.3536L123.623 69.1395C123.906 69.391 124 69.6424 124 70.0982V72L117.898 65.6503Z" fill="#9E856F"/>
<path d="M264.516 59.6149L267.426 62.6483L267.929 63.1827L271.515 59.7092L268.134 56.1572L264.516 59.6149ZM267.898 65.6503L266.938 64.6444L263.258 60.8251L263.132 60.6994L262.582 60.1336C262.409 59.9607 262.236 59.8193 262.094 59.6935C262.063 59.6778 262.047 59.6464 262 59.6306L262.456 59.1906L274 48V49.9332C274 50.389 273.906 50.6405 273.638 50.8762L272.742 51.7721L269.376 54.9784L272.742 58.5933L272.899 58.7662L273.623 59.4735C273.906 59.7249 274 59.9764 274 60.4322V62.3183L272.742 60.998L269.14 64.4558L272.742 68.2436L272.836 68.3536L273.623 69.1395C273.906 69.391 274 69.6424 274 70.0982V72L267.898 65.6503Z" fill="#9E856F"/>
<path d="M414.516 59.6149L417.426 62.6483L417.929 63.1827L421.515 59.7092L418.134 56.1572L414.516 59.6149ZM417.898 65.6503L416.938 64.6444L413.258 60.8251L413.132 60.6994L412.582 60.1336C412.409 59.9607 412.236 59.8193 412.094 59.6935C412.063 59.6778 412.047 59.6464 412 59.6306L412.456 59.1906L424 48V49.9332C424 50.389 423.906 50.6405 423.638 50.8762L422.742 51.7721L419.376 54.9784L422.742 58.5933L422.899 58.7662L423.623 59.4735C423.906 59.7249 424 59.9764 424 60.4322V62.3183L422.742 60.998L419.14 64.4558L422.742 68.2436L422.836 68.3536L423.623 69.1395C423.906 69.391 424 69.6424 424 70.0982V72L417.898 65.6503Z" fill="#9E856F"/>
<path d="M564.516 59.6149L567.426 62.6483L567.929 63.1827L571.515 59.7092L568.134 56.1572L564.516 59.6149ZM567.898 65.6503L566.938 64.6444L563.258 60.8251L563.132 60.6994L562.582 60.1336C562.409 59.9607 562.236 59.8193 562.094 59.6935C562.063 59.6778 562.047 59.6464 562 59.6306L562.456 59.1906L574 48V49.9332C574 50.389 573.906 50.6405 573.638 50.8762L572.742 51.7721L569.376 54.9784L572.742 58.5933L572.899 58.7662L573.623 59.4735C573.906 59.7249 574 59.9764 574 60.4322V62.3183L572.742 60.998L569.14 64.4558L572.742 68.2436L572.836 68.3536L573.623 69.1395C573.906 69.391 574 69.6424 574 70.0982V72L567.898 65.6503Z" fill="#9E856F"/>
<path d="M714.516 59.6149L717.426 62.6483L717.929 63.1827L721.515 59.7092L718.134 56.1572L714.516 59.6149ZM717.898 65.6503L716.938 64.6444L713.258 60.8251L713.132 60.6994L712.582 60.1336C712.409 59.9607 712.236 59.8193 712.094 59.6935C712.063 59.6778 712.047 59.6464 712 59.6306L712.456 59.1906L724 48V49.9332C724 50.389 723.906 50.6405 723.638 50.8762L722.742 51.7721L719.376 54.9784L722.742 58.5933L722.899 58.7662L723.623 59.4735C723.906 59.7249 724 59.9764 724 60.4322V62.3183L722.742 60.998L719.14 64.4558L722.742 68.2436L722.836 68.3536L723.623 69.1395C723.906 69.391 724 69.6424 724 70.0982V72L717.898 65.6503Z" fill="#9E856F"/>
</svg>
