<svg width="136" height="32" viewBox="0 0 136 32" fill="none" xmlns="http://www.w3.org/2000/svg">
<path d="M36.4702 22.1257V21.3714C36.4702 12.7314 31.4608 7.38281 24.1168 7.38281C20.9888 7.38281 17.9288 8.66282 15.6168 11.0171C13.3275 13.3257 12.1035 16.2971 12.1035 19.5428C12.1035 22.8343 13.2595 25.7828 15.4808 28.1371C17.8382 30.6514 20.6715 31.8628 24.1848 31.8628C29.3302 31.8628 33.1382 29.3943 35.3822 24.5485H27.9249C26.9049 25.4628 25.7715 25.8285 24.4115 25.8285C21.4649 25.8285 19.6742 24.5485 19.0848 22.0571L36.4702 22.1257ZM29.6475 17.28H18.8808C19.3568 15.0628 21.3742 13.6 24.2075 13.6C26.9048 13.6228 28.8315 14.9028 29.6475 17.28Z" fill="#3E4861"/>
<path d="M62.1284 22.1257V21.3714C62.1284 12.7314 57.1191 7.38281 49.7751 7.38281C46.6471 7.38281 43.5871 8.66282 41.2751 11.0171C38.9857 13.3257 37.7617 16.2971 37.7617 19.5428C37.7617 22.8343 38.9177 25.7828 41.1391 28.1371C43.4964 30.6514 46.3297 31.8628 49.8431 31.8628C54.9884 31.8628 58.7964 29.3943 61.0404 24.5485H53.583C52.5631 25.4628 51.4297 25.8285 50.0697 25.8285C47.1231 25.8285 45.3324 24.5485 44.7431 22.0571L62.1284 22.1257ZM55.2831 17.28H44.5164C44.9924 15.0628 47.0097 13.6 49.8431 13.6C52.5404 13.6228 54.4897 14.9028 55.2831 17.28Z" fill="#3E4861"/>
<path d="M2.49333 13.3029V31.36H9.15733V13.3029H11.8773V8.11429H9.13467V7.54286C9.13467 5.41715 9.61067 4.73143 11.6733 4.73143H11.8547V0.0457136C11.4693 0.0457136 11.1067 0 10.7893 0C5.1 0.0228572 2.448 2.28572 2.448 7.24572C2.448 7.49715 2.49333 7.81715 2.49333 8.11429H0V13.3029H2.49333Z" fill="#3E4861"/>
<path d="M64.6914 13.303V31.3601H71.3554V13.303H74.0754V8.11438H71.3554V7.54295C71.3554 5.41724 71.8314 4.73152 73.894 4.73152H74.0754V0.0686628C73.69 0.0686628 73.3274 0.0229492 73.01 0.0229492C67.3207 0.0229492 64.6687 2.28581 64.6687 7.24581C64.6687 7.49724 64.714 7.81724 64.714 8.11438H62.2207V13.303H64.6914Z" fill="#3E4861"/>
<path d="M98.3518 19.5886C98.3518 16.4343 97.0371 13.2114 94.5665 10.9029C92.2545 8.68571 89.3758 7.54285 86.0211 7.54285C82.8931 7.54285 79.8331 8.82285 77.5211 11.1771C75.2318 13.4857 74.0078 16.4571 74.0078 19.7029C74.0078 22.9486 75.1638 25.9429 77.3851 28.2743C79.7425 30.7886 82.5758 32 86.0892 32C89.5572 32 92.4811 30.7429 94.8385 28.3657C97.1958 25.9886 98.3518 23.0857 98.3518 19.5886ZM91.6198 19.7714C91.6198 22.9257 89.1718 25.4857 86.1798 25.4857C83.2331 25.4857 80.7398 22.9257 80.7398 19.7714C80.7398 16.5714 83.1878 14.0114 86.1798 14.0114C89.1718 14.0114 91.6198 16.5486 91.6198 19.7714Z" fill="#3E4861"/>
<path d="M108.778 15.7944C105.514 15.5886 102.907 12.9601 102.703 9.64579H115.623H116.983V9.48578C116.983 3.84007 113.402 0.0457764 108.461 0.0457764C103.225 0.0457764 99.666 3.90864 99.666 8.93721C99.666 13.6915 103.338 17.8744 108.347 17.8744C111.997 17.8744 114.875 15.8401 116.439 12.0458H115.011C113.969 14.2629 111.747 15.7944 109.186 15.7944C109.005 15.8172 108.891 15.8172 108.778 15.7944Z" fill="#3E4861"/>
<path d="M126.889 15.7942C130.153 15.5885 132.76 12.96 132.964 9.64566H120.044H118.684V9.48566C118.684 3.83994 122.265 0.0456543 127.206 0.0456543C132.442 0.0456543 136.001 3.90852 136.001 8.93709C136.001 13.6914 132.329 17.8742 127.32 17.8742C123.67 17.8742 120.792 15.84 119.228 12.0457H120.678C121.721 14.2628 123.942 15.7942 126.504 15.7942C126.617 15.8171 126.753 15.8171 126.889 15.7942Z" fill="#3E4861"/>
</svg>
