<svg width="40" height="40" viewBox="0 0 40 40" fill="none" xmlns="http://www.w3.org/2000/svg">
<path d="M25.834 20C30.0007 20 33.334 23.3333 33.334 27.5C33.334 28.9666 32.9173 30.35 32.184 31.5L37.3173 36.6666L35.0007 38.9833L29.8007 33.8666C28.6507 34.5833 27.284 35 25.834 35C21.6673 35 18.334 31.6666 18.334 27.5C18.334 23.3333 21.6673 20 25.834 20ZM25.834 23.3333C24.7289 23.3333 23.6691 23.7723 22.8877 24.5537C22.1063 25.3351 21.6673 26.3949 21.6673 27.5C21.6673 28.605 22.1063 29.6648 22.8877 30.4462C23.6691 31.2276 24.7289 31.6666 25.834 31.6666C26.9391 31.6666 27.9989 31.2276 28.7803 30.4462C29.5617 29.6648 30.0007 28.605 30.0007 27.5C30.0007 26.3949 29.5617 25.3351 28.7803 24.5537C27.9989 23.7723 26.9391 23.3333 25.834 23.3333ZM16.6673 6.66663C18.4354 6.66663 20.1311 7.369 21.3814 8.61925C22.6316 9.86949 23.334 11.5652 23.334 13.3333C23.334 14.85 22.8173 16.25 21.9673 17.3833C20.534 17.9166 19.2507 18.7666 18.184 19.8333L16.6673 20C14.8992 20 13.2035 19.2976 11.9533 18.0473C10.703 16.7971 10.0007 15.1014 10.0007 13.3333C10.0007 11.5652 10.703 9.86949 11.9533 8.61925C13.2035 7.369 14.8992 6.66663 16.6673 6.66663ZM3.33398 33.3333V30C3.33398 26.4666 8.85065 23.5666 15.834 23.3333C15.3007 24.6333 15.0007 26.0333 15.0007 27.5C15.0007 29.65 15.634 31.6666 16.6673 33.3333H3.33398Z" fill="#3E4861"/>
</svg>
