<svg width="40" height="40" viewBox="0 0 40 40" fill="none" xmlns="http://www.w3.org/2000/svg">
<path d="M18.334 28.3333V11.6667H6.66732V28.3333H18.334ZM18.334 5C19.218 5 20.0659 5.35119 20.691 5.97631C21.3161 6.60143 21.6673 7.44928 21.6673 8.33333V31.6667C21.6673 32.5507 21.3161 33.3986 20.691 34.0237C20.0659 34.6488 19.218 35 18.334 35H6.66732C4.81732 35 3.33398 33.5 3.33398 31.6667V8.33333C3.33398 7.44928 3.68517 6.60143 4.31029 5.97631C4.93542 5.35119 5.78326 5 6.66732 5H18.334ZM27.5006 5H35.834C36.497 5 37.1329 5.26339 37.6017 5.73223C38.0706 6.20107 38.334 6.83696 38.334 7.5V12.5C38.334 13.163 38.0706 13.7989 37.6017 14.2678C37.1329 14.7366 36.497 15 35.834 15H30.0006L25.0006 20V15V7.5C25.0006 6.83696 25.264 6.20107 25.7329 5.73223C26.2017 5.26339 26.8376 5 27.5006 5Z" fill="#3E4861"/>
</svg>
