<svg width="32" height="32" viewBox="0 0 32 32" fill="none" xmlns="http://www.w3.org/2000/svg">
<path d="M10.6667 4C7.72004 4 5.33337 6.38667 5.33337 9.33333V18.6667C5.33337 20.1333 6.53337 21.3333 8.00004 21.3333H12V26.6667C12 28.1333 13.2 29.3333 14.6667 29.3333H17.3334C18.8 29.3333 20 28.1333 20 26.6667V21.3333H24C25.4667 21.3333 26.6667 20.1333 26.6667 18.6667V4H10.6667ZM10.6667 6.66667H16V9.33333H18.6667V6.66667H20V12H22.6667V6.66667H24V13.3333H8.00004V9.33333C8.00004 7.86667 9.20004 6.66667 10.6667 6.66667ZM8.00004 18.6667V16H24V18.6667H8.00004Z" fill="#3E4861"/>
</svg>
