<svg width="20" height="20" viewBox="0 0 20 20" fill="none" xmlns="http://www.w3.org/2000/svg">
<path d="M11.25 17.4988V3.12378C11.25 2.95802 11.1842 2.79905 11.0669 2.68184C10.9497 2.56463 10.7908 2.49878 10.625 2.49878H3.125C2.95924 2.49878 2.80027 2.56463 2.68306 2.68184C2.56585 2.79905 2.5 2.95802 2.5 3.12378V17.4988" stroke="#3E4861" stroke-linecap="round" stroke-linejoin="round"/>
<path d="M17.5 17.4988V8.12378C17.5 7.95802 17.4342 7.79905 17.3169 7.68184C17.1997 7.56463 17.0408 7.49878 16.875 7.49878H11.25" stroke="#3E4861" stroke-linecap="round" stroke-linejoin="round"/>
<path d="M5 5.62378H7.5" stroke="#3E4861" stroke-linecap="round" stroke-linejoin="round"/>
<path d="M6.25 11.8738H8.75" stroke="#3E4861" stroke-linecap="round" stroke-linejoin="round"/>
<path d="M5 14.9988H7.5" stroke="#3E4861" stroke-linecap="round" stroke-linejoin="round"/>
<path d="M13.75 13.7488H15" stroke="#3E4861" stroke-linecap="round" stroke-linejoin="round"/>
<path d="M13.75 10.6238H15" stroke="#3E4861" stroke-linecap="round" stroke-linejoin="round"/>
</svg>
