<svg width="18" height="18" viewBox="0 0 18 18" fill="none" xmlns="http://www.w3.org/2000/svg">
<path d="M1.33276 9.00067C1.33276 10.0075 1.53107 11.0044 1.91635 11.9346C2.30164 12.8647 2.86636 13.7099 3.57828 14.4218C4.29019 15.1337 5.13536 15.6985 6.06552 16.0837C6.99569 16.469 7.99263 16.6673 8.99943 16.6673C10.0062 16.6673 11.0032 16.469 11.9333 16.0837C12.8635 15.6985 13.7087 15.1337 14.4206 14.4218C15.1325 13.7099 15.6972 12.8647 16.0825 11.9346C16.4678 11.0044 16.6661 10.0075 16.6661 9.00067C16.6661 7.99387 16.4678 6.99692 16.0825 6.06676C15.6972 5.1366 15.1325 4.29143 14.4206 3.57951C13.7087 2.8676 12.8635 2.30288 11.9333 1.91759C11.0032 1.5323 10.0062 1.334 8.99943 1.334C7.99263 1.334 6.99569 1.5323 6.06552 1.91759C5.13536 2.30288 4.29019 2.8676 3.57828 3.57951C2.86636 4.29143 2.30164 5.1366 1.91635 6.06676C1.53107 6.99692 1.33276 7.99387 1.33276 9.00067V9.00067Z" stroke="#3E4861" stroke-linecap="round" stroke-linejoin="round"/>
<path d="M9 5.33401V9.00068L13 12.6673" stroke="#3E4861" stroke-linecap="round" stroke-linejoin="round"/>
</svg>
