<svg width="16" height="16" viewBox="0 0 16 16" fill="none" xmlns="http://www.w3.org/2000/svg">
<path d="M13.7073 0.5L15.3539 2.14667C15.4004 2.19304 15.4372 2.24812 15.4624 2.30875C15.4875 2.36938 15.5004 2.43437 15.5004 2.5C15.5004 2.56563 15.4875 2.63062 15.4624 2.69125C15.4372 2.75188 15.4004 2.80696 15.3539 2.85333L13.7073 4.5" stroke="#3E4861" stroke-linecap="round" stroke-linejoin="round"/>
<path d="M2.5 15.5V3.5C2.5 3.23478 2.60536 2.98043 2.79289 2.79289C2.98043 2.60536 3.23478 2.5 3.5 2.5H15.5" stroke="#3E4861" stroke-linecap="round" stroke-linejoin="round"/>
<path d="M4.5 13.7073L2.854 15.3533C2.80757 15.3997 2.75243 15.4366 2.69175 15.4617C2.63107 15.4869 2.56602 15.4998 2.50033 15.4998C2.43465 15.4998 2.3696 15.4869 2.30892 15.4617C2.24823 15.4366 2.1931 15.3997 2.14667 15.3533L0.5 13.7073" stroke="#3E4861" stroke-linecap="round" stroke-linejoin="round"/>
<path d="M14.5 15.5C14.7652 15.5 15.0196 15.3946 15.2071 15.2071C15.3946 15.0196 15.5 14.7652 15.5 14.5" stroke="#3E4861" stroke-linecap="round" stroke-linejoin="round"/>
<path d="M12.5 15.5H11.5" stroke="#3E4861" stroke-linecap="round" stroke-linejoin="round"/>
<path d="M9.5 15.5H8.5" stroke="#3E4861" stroke-linecap="round" stroke-linejoin="round"/>
<path d="M6.5 15.5H5.5" stroke="#3E4861" stroke-linecap="round" stroke-linejoin="round"/>
<path d="M15.5 12.5V11.5" stroke="#3E4861" stroke-linecap="round" stroke-linejoin="round"/>
<path d="M15.5 9.5V8.5" stroke="#3E4861" stroke-linecap="round" stroke-linejoin="round"/>
<path d="M15.5 6.5V5.5" stroke="#3E4861" stroke-linecap="round" stroke-linejoin="round"/>
</svg>
