<svg width="26" height="52" viewBox="0 0 26 52" fill="none" xmlns="http://www.w3.org/2000/svg">
<path d="M5.37696 25.1316L11.6728 31.704L12.7618 32.8618L20.5209 25.336L13.2382 17.6398L5.37696 25.1316ZM12.7277 38.2082L10.6518 36.0288L2.68848 27.7538L2.41623 27.4813L1.22513 26.2554C0.850785 25.8808 0.47644 25.5743 0.170157 25.3019C0.102094 25.2678 0.0340314 25.1997 0 25.1657L0.986911 24.2122L25.966 0V4.1886C25.966 5.17616 25.7618 5.72102 25.1832 6.23183L23.2435 8.17289L15.9607 15.1198L23.2435 22.9522L23.6178 23.3268L25.1832 24.8592C25.7958 25.4041 26 25.9489 26 26.9365V31.0229L23.2775 28.1624L15.4843 35.6542L23.2775 43.8612L23.4817 44.0995L25.1832 45.8022C25.7958 46.3471 26 46.8919 26 47.8795V52L12.7958 38.2423L12.7277 38.2082Z" fill="white"/>
</svg>
