<?xml version="1.0" standalone="no"?>
<!DOCTYPE svg PUBLIC "-//W3C//DTD SVG 20010904//EN"
 "http://www.w3.org/TR/2001/REC-SVG-20010904/DTD/svg10.dtd">
<svg version="1.0" xmlns="http://www.w3.org/2000/svg"
 width="217.000000pt" height="217.000000pt" viewBox="0 0 217.000000 217.000000"
 preserveAspectRatio="xMidYMid meet">
<metadata>
Created by potrace 1.14, written by Peter Selinger 2001-2017
</metadata>
<g transform="translate(0.000000,217.000000) scale(0.100000,-0.100000)"
fill="#000000" stroke="none">
<path d="M1045 2106 c-48 -28 -150 -83 -265 -143 -47 -25 -89 -49 -93 -53 -12
-11 400 -303 415 -294 7 4 57 39 111 78 54 39 109 78 122 86 13 8 56 39 94 67
74 55 86 53 61 -12 -5 -14 -12 -37 -14 -50 -3 -14 -8 -34 -11 -45 -6 -18 -2
-20 40 -20 36 0 46 3 42 14 -3 8 -13 49 -23 93 l-16 79 -208 112 c-114 62
-209 112 -211 112 -2 -1 -22 -11 -44 -24z"/>
<path d="M789 1693 c-58 -121 -48 -263 25 -372 31 -46 34 -56 29 -103 -3 -29
-10 -59 -15 -65 -16 -20 -66 -16 -78 6 -11 22 -4 98 14 152 l13 36 -191 0
c-306 1 -296 12 -296 -343 0 -233 1 -247 21 -275 38 -53 62 -59 248 -59 l169
0 0 -215 c0 -324 -12 -313 364 -313 285 0 303 3 344 65 20 30 21 45 22 235 0
112 1 209 1 216 1 9 41 12 167 12 272 0 267 -6 266 338 0 261 -4 288 -51 319
-22 15 -53 18 -224 20 l-197 2 6 -45 c3 -26 3 -66 -1 -90 -6 -46 -24 -66 -169
-204 -103 -97 -147 -210 -99 -249 18 -14 53 -70 54 -86 0 -3 -10 -23 -22 -45
-40 -70 -136 -78 -184 -16 -34 44 -32 87 3 128 22 25 29 44 30 78 3 85 52 163
178 286 78 76 114 118 114 133 0 12 14 43 32 68 45 66 68 135 70 206 1 75 -7
115 -39 185 -26 58 -41 63 -83 30 -16 -13 -63 -48 -107 -78 -43 -30 -84 -60
-91 -67 -16 -16 -8 -20 -152 82 -63 44 -120 84 -127 88 -8 5 -23 -16 -44 -60z"/>
<path d="M1059 726 c-31 -15 -39 -72 -12 -92 44 -33 121 2 108 49 -7 23 -38
50 -60 53 -7 1 -23 -3 -36 -10z"/>
</g>
</svg>
