<svg width="21" height="20" viewBox="0 0 21 20" fill="none" xmlns="http://www.w3.org/2000/svg">
<path d="M10.5 1.875H10.5C11.3288 1.875 12.1237 2.20424 12.7097 2.79029C13.2958 3.37634 13.625 4.1712 13.625 5V10C13.625 10.8288 13.2958 11.6237 12.7097 12.2097C12.1237 12.7958 11.3288 13.125 10.5 13.125H10.5C10.0896 13.125 9.68325 13.0442 9.30411 12.8871C8.92497 12.7301 8.58047 12.4999 8.29029 12.2097C8.00011 11.9195 7.76992 11.575 7.61288 11.1959C7.45583 10.8167 7.375 10.4104 7.375 10V4.99999C7.375 4.17119 7.70424 3.37634 8.29029 2.79029C8.87634 2.20424 9.67119 1.875 10.5 1.875V1.875Z" stroke="white" stroke-linecap="round" stroke-linejoin="round"/>
<path d="M10.5 15.625V18.125" stroke="white" stroke-linecap="round" stroke-linejoin="round"/>
<path d="M16.0915 10.625C15.9376 12.0001 15.2824 13.2703 14.251 14.1927C13.2196 15.1151 11.8845 15.625 10.5008 15.625C9.11715 15.625 7.78201 15.115 6.75064 14.1926C5.71927 13.2702 5.06402 12.0001 4.91016 10.625" stroke="white" stroke-linecap="round" stroke-linejoin="round"/>
</svg>
