<svg width="16" height="16" viewBox="0 0 16 16" fill="none" xmlns="http://www.w3.org/2000/svg">
<g clip-path="url(#clip0_2119_1804)">
<path d="M4.99462 6.67467C5.24458 6.42463 5.385 6.08555 5.385 5.732C5.385 5.37845 5.24458 5.03937 4.99462 4.78933L3.57995 3.37533C3.45613 3.25147 3.30912 3.1532 3.14732 3.08616C2.98552 3.01912 2.81209 2.98462 2.63695 2.98462C2.46181 2.98462 2.28838 3.01912 2.12658 3.08616C1.96478 3.1532 1.81777 3.25147 1.69395 3.37533L0.918616 4.15067C0.593247 4.47685 0.39047 4.90537 0.344555 5.36379C0.29864 5.82221 0.412402 6.28243 0.666616 6.66667C2.95006 10.1034 5.8965 13.0499 9.33328 15.3333C9.71753 15.5873 10.1777 15.7008 10.6359 15.6548C11.0942 15.6088 11.5226 15.406 11.8486 15.0807L12.6246 14.3047C12.8746 14.0546 13.015 13.7156 13.015 13.362C13.015 13.0084 12.8746 12.6694 12.6246 12.4193L11.2106 11.0067C10.9606 10.7567 10.6215 10.6163 10.2679 10.6163C9.9144 10.6163 9.57532 10.7567 9.32528 11.0067L8.85395 11.478C7.27261 10.1773 5.82136 8.726 4.52062 7.14467L4.99462 6.67467Z" stroke="#3E4861" stroke-linecap="round" stroke-linejoin="round"/>
<path d="M15.6667 0.334595L9 7.00126" stroke="#3E4861" stroke-linecap="round" stroke-linejoin="round"/>
<path d="M11.3333 0.333984H15.6666V4.66732" stroke="#3E4861" stroke-linecap="round" stroke-linejoin="round"/>
</g>
<defs>
<clipPath id="clip0_2119_1804">
<rect width="16" height="16" fill="white"/>
</clipPath>
</defs>
</svg>
