<svg width="18" height="18" viewBox="0 0 18 18" fill="none" xmlns="http://www.w3.org/2000/svg">
<path d="M13.6047 11.0233C13.5487 10.9313 13.4 10.8746 13.1767 10.7646C12.9534 10.6546 11.8534 10.1166 11.6494 10.0433C11.4454 9.96995 11.2947 9.93195 11.146 10.154C10.9974 10.376 10.5687 10.8746 10.438 11.0206C10.3074 11.1666 10.1774 11.1873 9.95404 11.0766C9.2949 10.8166 8.68586 10.4442 8.15404 9.97595C7.66586 9.52949 7.24703 9.01269 6.91138 8.44262C6.77804 8.22128 6.89738 8.10128 7.00938 7.99062C7.24374 7.77698 7.43359 7.51916 7.56804 7.23195C7.5979 7.17083 7.61185 7.10317 7.60858 7.03522C7.60532 6.96728 7.58496 6.90126 7.54938 6.84328C7.49538 6.73328 7.04804 5.64128 6.86204 5.19995C6.65138 4.69595 5.71204 4.67862 5.33404 5.08795C4.14138 6.38195 4.41671 7.84795 5.46738 9.23128C5.57938 9.37928 7.01404 11.692 9.28604 12.58C11.558 13.468 11.558 13.1713 11.968 13.134C13.146 13.028 13.9434 11.5853 13.6074 11.0253M9.00004 1.33328C6.97542 1.32743 5.03117 2.12496 3.59386 3.55089C2.15656 4.97682 1.34361 6.91468 1.33338 8.93928C1.3323 10.5439 1.84408 12.1068 2.79404 13.4L1.83671 16.2253L4.78271 15.2886C5.93526 16.045 7.27027 16.4769 8.64743 16.5389C10.0246 16.601 11.393 16.291 12.609 15.6414C13.8249 14.9918 14.8434 14.0267 15.5574 12.8475C16.2714 11.6683 16.6546 10.3185 16.6667 8.93995C16.6565 6.91529 15.8435 4.97736 14.4063 3.55132C12.969 2.12529 11.0247 1.32761 9.00004 1.33328V1.33328Z" stroke="#25D366" stroke-linecap="round" stroke-linejoin="round"/>
</svg>
